# Made in Blockbench 5.1.4
mtllib hd.mtl

o cube
v -0.5 2.7576834323650896 1.423879532511287
v 1.5 2.7576834323650896 1.423879532511287
v 1.5 1.9923165676349104 -0.423879532511287
v -0.5 1.9923165676349104 -0.423879532511287
v -0.5 1.9923165676349104 -0.423879532511287
v 1.5 1.9923165676349104 -0.423879532511287
v 1.5 2.7576834323650896 1.423879532511287
v -0.5 2.7576834323650896 1.423879532511287
vt 0 0
vt 0.2727272727272727 0
vt 0.2727272727272727 0.2727272727272728
vt 0 0.2727272727272728
vt 0 0
vt 0.2727272727272723 0
vt 0.2727272727272723 0.2727272727272728
vt 0 0.2727272727272728
vn 0 0.923879532511287 -0.3826834323650896
vn 0 -0.923879532511287 0.3826834323650896
usemtl m_7827a236-5b12-b880-c358-06eba44811f8
f 1/1/1 2/2/1 3/3/1 4/4/1
f 5/5/2 6/6/2 7/7/2 8/8/2
