# Made in Blockbench 5.1.4
mtllib model_on.mtl

o cube
v 2 1 2
v 2 1 -1
v 2 0 2
v 2 0 -1
v -1 1 -1
v -1 1 2
v -1 0 -1
v -1 0 2
vt 0.09090909090909091 0.5454545454545454
vt 0.36363636363636365 0.5454545454545454
vt 0.36363636363636365 0.4545454545454546
vt 0.09090909090909091 0.4545454545454546
vt 0.09090909090909091 0.5454545454545454
vt 0.36363636363636365 0.5454545454545454
vt 0.36363636363636365 0.4545454545454546
vt 0.09090909090909091 0.4545454545454546
vt 0.09090909090909091 0.5454545454545454
vt 0.36363636363636365 0.5454545454545454
vt 0.36363636363636365 0.4545454545454546
vt 0.09090909090909091 0.4545454545454546
vt 0.09090909090909091 0.5454545454545454
vt 0.36363636363636365 0.5454545454545454
vt 0.36363636363636365 0.4545454545454546
vt 0.09090909090909091 0.4545454545454546
vt 0.5454545454545454 0.9034090909090909
vt 0.8181818181818182 0.9034090909090909
vt 0.8181818181818182 0.6306818181818181
vt 0.5454545454545454 0.6306818181818181
vt 0.09303977272727272 0.9147727272727273
vt 0.36576704545454547 0.9147727272727273
vt 0.36576704545454547 0.6363636363636364
vt 0.09303977272727272 0.6363636363636364
vn 0 0 -1
vn 1 0 0
vn 0 0 1
vn -1 0 0
vn 0 1 0
vn 0 -1 0
usemtl m_825b82f6-8ed2-501b-9a50-e5846395849e
f 4/4/1 7/3/1 5/2/1 2/1/1
f 3/8/2 4/7/2 2/6/2 1/5/2
f 8/12/3 3/11/3 1/10/3 6/9/3
f 7/16/4 8/15/4 6/14/4 5/13/4
f 6/20/5 1/19/5 2/18/5 5/17/5
f 7/24/6 4/23/6 3/22/6 8/21/6
o connector4
v -0.28125 1.6875 -1.34375
v -0.2573322854771819 1.6875 -1.4014924707819554
v -0.28125 1.4375 -1.34375
v -0.2573322854771819 1.4375 -1.4014924707819554
v -0.95024193486064679 1.6875 -1.6885050450557726
v -0.974159649383465 1.6875 -1.6307625742738172
v -0.95024193486064679 1.4375 -1.6885050450557726
v -0.974159649383465 1.4375 -1.6307625742738172
vt 0.9318181818181818 1
vt 0.9318181818181818 0.9545454545454546
vt 0.9090909090909091 0.9545454545454546
vt 0.9090909090909091 1
vt 0.9318181818181818 1
vt 0.9318181818181818 0.9545454545454546
vt 0.9090909090909091 0.9545454545454546
vt 0.9090909090909091 1
vt 0.4375 0.5397727272727273
vt 0.4375 0.5454545454545454
vt 0.45454545454545453 0.5454545454545454
vt 0.45454545454545453 0.5397727272727273
vt 0.38636363636363635 0.5454545454545454
vt 0.45454545454545453 0.5454545454545454
vt 0.45454545454545453 0.5397727272727273
vt 0.38636363636363635 0.5397727272727273
vt 0.38636363636363635 0.5454545454545454
vt 0.45454545454545453 0.5454545454545454
vt 0.45454545454545453 0.5397727272727273
vt 0.38636363636363635 0.5397727272727273
vn 0.3826834323650897 0 -0.9238795325112867
vn -0.3826834323650897 0 0.9238795325112867
vn -0.9238795325112867 0 -0.3826834323650897
vn 0 1 0
vn 0 -1 0
usemtl m_825b82f6-8ed2-501b-9a50-e5846395849e
f 12/28/7 15/27/7 13/26/7 10/25/7
f 16/32/8 11/31/8 9/30/8 14/29/8
f 15/36/9 16/35/9 14/34/9 13/33/9
f 14/40/10 9/39/10 10/38/10 13/37/10
f 15/44/11 12/43/11 11/42/11 16/41/11
o connector2
v 1.28125 1.6875 -1.34375
v 1.28125 1.6875 -1.40625
v 1.28125 1.4375 -1.34375
v 1.28125 1.4375 -1.40625
v -0.28125 1.6875 -1.40625
v -0.28125 1.6875 -1.34375
v -0.28125 1.4375 -1.40625
v -0.28125 1.4375 -1.34375
vt 0.9090909090909091 0.7954545454545454
vt 0.9090909090909091 0.9545454545454546
vt 0.9318181818181818 0.9545454545454546
vt 0.9318181818181818 0.7954545454545454
vt 0.9090909090909091 0.7954545454545454
vt 0.9090909090909091 0.9545454545454546
vt 0.9318181818181818 0.9545454545454546
vt 0.9318181818181818 0.7954545454545454
vt 0.3522727272727273 0.5454545454545454
vt 0.44886363636363635 0.5454545454545454
vt 0.44886363636363635 0.5397727272727273
vt 0.3522727272727273 0.5397727272727273
vt 0.3522727272727273 0.5454545454545454
vt 0.44886363636363635 0.5454545454545454
vt 0.44886363636363635 0.5397727272727273
vt 0.3522727272727273 0.5397727272727273
vn 0 0 -1
vn 0 0 1
vn 0 1 0
vn 0 -1 0
usemtl m_825b82f6-8ed2-501b-9a50-e5846395849e
f 20/48/12 23/47/12 21/46/12 18/45/12
f 24/52/13 19/51/13 17/50/13 22/49/13
f 22/56/14 17/55/14 18/54/14 21/53/14
f 23/60/15 20/59/15 19/58/15 24/57/15
o connector3
v 1.9164171786015096 1.6875 -1.606844859750999
v 1.8924994640786914 1.6875 -1.6645873305329548
v 1.9164171786015096 1.4375 -1.606844859750999
v 1.8924994640786914 1.4375 -1.6645873305329548
v 1.2573322854771818 1.6875 -1.4014924707819554
v 1.28125 1.6875 -1.34375
v 1.2573322854771818 1.4375 -1.4014924707819554
v 1.28125 1.4375 -1.34375
vt 0.9318181818181818 0.7954545454545454
vt 0.9318181818181818 0.75
vt 0.9090909090909091 0.75
vt 0.9090909090909091 0.7954545454545454
vt 0.4375 0.5397727272727273
vt 0.4375 0.5454545454545454
vt 0.45454545454545453 0.5454545454545454
vt 0.45454545454545453 0.5397727272727273
vt 0.9318181818181818 0.7954545454545454
vt 0.9318181818181818 0.75
vt 0.9090909090909091 0.75
vt 0.9090909090909091 0.7954545454545454
vt 0.38636363636363635 0.5454545454545454
vt 0.45454545454545453 0.5454545454545454
vt 0.45454545454545453 0.5397727272727273
vt 0.38636363636363635 0.5397727272727273
vt 0.38636363636363635 0.5454545454545454
vt 0.45454545454545453 0.5454545454545454
vt 0.45454545454545453 0.5397727272727273
vt 0.38636363636363635 0.5397727272727273
vn -0.3826834323650897 0 -0.9238795325112867
vn 0.9238795325112867 0 -0.3826834323650897
vn 0.3826834323650897 0 0.9238795325112867
vn 0 1 0
vn 0 -1 0
usemtl m_825b82f6-8ed2-501b-9a50-e5846395849e
f 28/64/16 31/63/16 29/62/16 26/61/16
f 27/68/17 28/67/17 26/66/17 25/65/17
f 32/72/18 27/71/18 25/70/18 30/69/18
f 30/76/19 25/75/19 26/74/19 29/73/19
f 31/80/20 28/79/20 27/78/20 32/77/20
o cube
v -0.28452460393897205 2 -1.4826830951676024
v -0.23668917489333574 2 -1.5981680367315132
v -0.28452460393897205 1.25 -1.4826830951676024
v -0.23668917489333574 1.25 -1.5981680367315132
v -0.92959882427680074 2 -1.8851806110053309
v -0.97743425332243694 2 -1.7696956694414196
v -0.92959882427680074 1.25 -1.8851806110053309
v -0.97743425332243694 1.25 -1.7696956694414196
vt 0.6477272727272727 0.44318181818181823
vt 0.7159090909090909 0.44318181818181823
vt 0.7159090909090909 0.375
vt 0.6477272727272727 0.375
vt 0.5340909090909091 0.5340909090909092
vt 0.5454545454545454 0.5340909090909092
vt 0.5454545454545454 0.46590909090909094
vt 0.5340909090909091 0.46590909090909094
vt 0.5568181818181818 0.5340909090909092
vt 0.625 0.5340909090909092
vt 0.625 0.46590909090909094
vt 0.5568181818181818 0.46590909090909094
vt 0.45454545454545453 0.5340909090909092
vt 0.4659090909090909 0.5340909090909092
vt 0.4659090909090909 0.46590909090909094
vt 0.45454545454545453 0.46590909090909094
vt 0.4659090909090909 0.5454545454545454
vt 0.5340909090909091 0.5454545454545454
vt 0.5340909090909091 0.5340909090909092
vt 0.4659090909090909 0.5340909090909092
vt 0.4659090909090909 0.46590909090909094
vt 0.5340909090909091 0.46590909090909094
vt 0.5340909090909091 0.4545454545454546
vt 0.4659090909090909 0.4545454545454546
vn 0.3826834323650897 0 -0.9238795325112867
vn 0.9238795325112867 0 0.3826834323650897
vn -0.3826834323650897 0 0.9238795325112867
vn -0.9238795325112867 0 -0.3826834323650897
vn 0 1 0
vn 0 -1 0
usemtl m_825b82f6-8ed2-501b-9a50-e5846395849e
f 36/84/21 39/83/21 37/82/21 34/81/21
f 35/88/22 36/87/22 34/86/22 33/85/22
f 40/92/23 35/91/23 33/90/23 38/89/23
f 39/96/24 40/95/24 38/94/24 37/93/24
f 38/100/25 33/99/25 34/98/25 37/97/25
f 39/104/26 36/103/26 35/102/26 40/101/26
o cube
v 0.375 1.875 -1.4375
v 0.375 1.875 -1.5
v 0.375 1.375 -1.4375
v 0.375 1.375 -1.5
v -0.125 1.875 -1.5
v -0.125 1.875 -1.4375
v -0.125 1.375 -1.5
v -0.125 1.375 -1.4375
vt 1 1
vt 0.9943181818181818 1
vt 0.9943181818181818 0.9545454545454546
vt 1 0.9545454545454546
vt 0.5681818181818182 0.5227272727272727
vt 0.6136363636363636 0.5227272727272727
vt 0.6136363636363636 0.4772727272727273
vt 0.5681818181818182 0.4772727272727273
vt 1 1
vt 0.9943181818181818 1
vt 0.9943181818181818 0.9545454545454546
vt 1 0.9545454545454546
vt 1 0.9545454545454546
vt 1 1
vt 0.9943181818181818 1
vt 0.9943181818181818 0.9545454545454546
vt 1 0.9545454545454546
vt 1 1
vt 0.9943181818181818 1
vt 0.9943181818181818 0.9545454545454546
vn 1 0 0
vn 0 0 1
vn -1 0 0
vn 0 1 0
vn 0 -1 0
usemtl m_825b82f6-8ed2-501b-9a50-e5846395849e
f 43/108/27 44/107/27 42/106/27 41/105/27
f 48/112/28 43/111/28 41/110/28 46/109/28
f 47/116/29 48/115/29 46/114/29 45/113/29
f 46/120/30 41/119/30 42/118/30 45/117/30
f 47/124/31 44/123/31 43/122/31 48/121/31
o cube
v 0.5 2 -1.5
v 0.5 2 -1.625
v 0.5 1.25 -1.5
v 0.5 1.25 -1.625
v -0.25 2 -1.625
v -0.25 2 -1.5
v -0.25 1.25 -1.625
v -0.25 1.25 -1.5
vt 0.8295454545454546 0.44318181818181823
vt 0.8977272727272727 0.44318181818181823
vt 0.8977272727272727 0.375
vt 0.8295454545454546 0.375
vt 0.5568181818181818 0.5340909090909092
vt 0.625 0.5340909090909092
vt 0.625 0.46590909090909094
vt 0.5568181818181818 0.46590909090909094
vt 0.45454545454545453 0.5340909090909092
vt 0.4659090909090909 0.5340909090909092
vt 0.4659090909090909 0.46590909090909094
vt 0.45454545454545453 0.46590909090909094
vt 0.4659090909090909 0.5454545454545454
vt 0.5340909090909091 0.5454545454545454
vt 0.5340909090909091 0.5340909090909092
vt 0.4659090909090909 0.5340909090909092
vt 0.4659090909090909 0.46590909090909094
vt 0.5340909090909091 0.46590909090909094
vt 0.5340909090909091 0.4545454545454546
vt 0.4659090909090909 0.4545454545454546
vn 0 0 -1
vn 0 0 1
vn -1 0 0
vn 0 1 0
vn 0 -1 0
usemtl m_825b82f6-8ed2-501b-9a50-e5846395849e
f 52/128/32 55/127/32 53/126/32 50/125/32
f 56/132/33 51/131/33 49/130/33 54/129/33
f 55/136/34 56/135/34 54/134/34 53/133/34
f 54/140/35 49/139/35 50/138/35 53/137/35
f 55/144/36 52/143/36 51/142/36 56/141/36
o cube
v 1.125 1.875 -1.4375
v 1.125 1.875 -1.5
v 1.125 1.375 -1.4375
v 1.125 1.375 -1.5
v 0.625 1.875 -1.5
v 0.625 1.875 -1.4375
v 0.625 1.375 -1.5
v 0.625 1.375 -1.4375
vt 1 1
vt 0.9943181818181818 1
vt 0.9943181818181818 0.9545454545454546
vt 1 0.9545454545454546
vt 0.5681818181818182 0.5227272727272727
vt 0.6136363636363636 0.5227272727272727
vt 0.6136363636363636 0.4772727272727273
vt 0.5681818181818182 0.4772727272727273
vt 1 1
vt 0.9943181818181818 1
vt 0.9943181818181818 0.9545454545454546
vt 1 0.9545454545454546
vt 1 0.9545454545454546
vt 1 1
vt 0.9943181818181818 1
vt 0.9943181818181818 0.9545454545454546
vt 1 0.9545454545454546
vt 1 1
vt 0.9943181818181818 1
vt 0.9943181818181818 0.9545454545454546
vn 1 0 0
vn 0 0 1
vn -1 0 0
vn 0 1 0
vn 0 -1 0
usemtl m_825b82f6-8ed2-501b-9a50-e5846395849e
f 59/148/37 60/147/37 58/146/37 57/145/37
f 64/152/38 59/151/38 57/150/38 62/149/38
f 63/156/39 64/155/39 62/154/39 61/153/39
f 62/160/40 57/159/40 58/158/40 61/157/40
f 63/164/41 60/163/41 59/162/41 64/161/41
o cube
v 1.25 2 -1.5
v 1.25 2 -1.625
v 1.25 1.25 -1.5
v 1.25 1.25 -1.625
v 0.5 2 -1.625
v 0.5 2 -1.5
v 0.5 1.25 -1.625
v 0.5 1.25 -1.5
vt 0.7386363636363636 0.5340909090909092
vt 0.8068181818181818 0.5340909090909092
vt 0.8068181818181818 0.46590909090909094
vt 0.7386363636363636 0.46590909090909094
vt 0.5340909090909091 0.5340909090909092
vt 0.5454545454545454 0.5340909090909092
vt 0.5454545454545454 0.46590909090909094
vt 0.5340909090909091 0.46590909090909094
vt 0.5568181818181818 0.5340909090909092
vt 0.625 0.5340909090909092
vt 0.625 0.46590909090909094
vt 0.5568181818181818 0.46590909090909094
vt 0.4659090909090909 0.5454545454545454
vt 0.5340909090909091 0.5454545454545454
vt 0.5340909090909091 0.5340909090909092
vt 0.4659090909090909 0.5340909090909092
vt 0.4659090909090909 0.46590909090909094
vt 0.5340909090909091 0.46590909090909094
vt 0.5340909090909091 0.4545454545454546
vt 0.4659090909090909 0.4545454545454546
vn 0 0 -1
vn 1 0 0
vn 0 0 1
vn 0 1 0
vn 0 -1 0
usemtl m_825b82f6-8ed2-501b-9a50-e5846395849e
f 68/168/42 71/167/42 69/166/42 66/165/42
f 67/172/43 68/171/43 66/170/43 65/169/43
f 72/176/44 67/175/44 65/174/44 70/173/44
f 70/180/45 65/179/45 66/178/45 69/177/45
f 71/184/46 68/183/46 67/182/46 72/181/46
o cube
v 1.8858670262813444 1.875 -1.6641177696138283
v 1.8619493117585262 1.875 -1.7218602403957837
v 1.8858670262813444 1.375 -1.6641177696138283
v 1.8619493117585262 1.375 -1.7218602403957837
v 1.4000095455028827 1.875 -1.5305185242132389
v 1.4239272600257009 1.875 -1.4727760534312833
v 1.4000095455028827 1.375 -1.5305185242132389
v 1.4239272600257009 1.375 -1.4727760534312833
vt 1 1
vt 0.9943181818181818 1
vt 0.9943181818181818 0.9545454545454546
vt 1 0.9545454545454546
vt 0.5681818181818182 0.5227272727272727
vt 0.6136363636363636 0.5227272727272727
vt 0.6136363636363636 0.4772727272727273
vt 0.5681818181818182 0.4772727272727273
vt 1 1
vt 0.9943181818181818 1
vt 0.9943181818181818 0.9545454545454546
vt 1 0.9545454545454546
vt 1 0.9545454545454546
vt 1 1
vt 0.9943181818181818 1
vt 0.9943181818181818 0.9545454545454546
vt 1 0.9545454545454546
vt 1 1
vt 0.9943181818181818 1
vt 0.9943181818181818 0.9545454545454546
vn 0.9238795325112867 0 -0.3826834323650897
vn 0.3826834323650897 0 0.9238795325112867
vn -0.9238795325112867 0 0.3826834323650897
vn 0 1 0
vn 0 -1 0
usemtl m_825b82f6-8ed2-501b-9a50-e5846395849e
f 75/188/47 76/187/47 74/186/47 73/185/47
f 80/192/48 75/191/48 73/190/48 78/189/48
f 79/196/49 80/195/49 78/194/49 77/193/49
f 78/200/50 73/199/50 74/198/50 77/197/50
f 79/204/51 76/203/51 75/202/51 80/201/51
o cube
v 1.9774342533224369 2 -1.7696956694414196
v 1.9295988242768007 2 -1.8851806110053309
v 1.9774342533224369 1.25 -1.7696956694414196
v 1.9295988242768007 1.25 -1.8851806110053309
v 1.2366891748933357 2 -1.5981680367315132
v 1.2845246039389719 2 -1.4826830951676024
v 1.2366891748933357 1.25 -1.5981680367315132
v 1.2845246039389719 1.25 -1.4826830951676024
vt 0.6477272727272727 0.5340909090909092
vt 0.7159090909090909 0.5340909090909092
vt 0.7159090909090909 0.46590909090909094
vt 0.6477272727272727 0.46590909090909094
vt 0.5340909090909091 0.5340909090909092
vt 0.5454545454545454 0.5340909090909092
vt 0.5454545454545454 0.46590909090909094
vt 0.5340909090909091 0.46590909090909094
vt 0.5568181818181818 0.5340909090909092
vt 0.625 0.5340909090909092
vt 0.625 0.46590909090909094
vt 0.5568181818181818 0.46590909090909094
vt 0.45454545454545453 0.5340909090909092
vt 0.4659090909090909 0.5340909090909092
vt 0.4659090909090909 0.46590909090909094
vt 0.45454545454545453 0.46590909090909094
vt 0.4659090909090909 0.5454545454545454
vt 0.5340909090909091 0.5454545454545454
vt 0.5340909090909091 0.5340909090909092
vt 0.4659090909090909 0.5340909090909092
vt 0.4659090909090909 0.46590909090909094
vt 0.5340909090909091 0.46590909090909094
vt 0.5340909090909091 0.4545454545454546
vt 0.4659090909090909 0.4545454545454546
vn -0.3826834323650897 0 -0.9238795325112867
vn 0.9238795325112867 0 -0.3826834323650897
vn 0.3826834323650897 0 0.9238795325112867
vn -0.9238795325112867 0 0.3826834323650897
vn 0 1 0
vn 0 -1 0
usemtl m_825b82f6-8ed2-501b-9a50-e5846395849e
f 84/208/52 87/207/52 85/206/52 82/205/52
f 83/212/53 84/211/53 82/210/53 81/209/53
f 88/216/54 83/215/54 81/214/54 86/213/54
f 87/220/55 88/219/55 86/218/55 85/217/55
f 86/224/56 81/223/56 82/222/56 85/221/56
f 87/228/57 84/227/57 83/226/57 88/225/57
o cube
v -0.42392726002570091 1.875 -1.4727760534312833
v -0.40000954550288281 1.875 -1.5305185242132389
v -0.42392726002570091 1.375 -1.4727760534312833
v -0.40000954550288281 1.375 -1.5305185242132389
v -0.86194931175852618 1.875 -1.7218602403957837
v -0.88586702628134439 1.875 -1.6641177696138283
v -0.86194931175852618 1.375 -1.7218602403957837
v -0.88586702628134439 1.375 -1.6641177696138283
vt 1 1
vt 0.9943181818181818 1
vt 0.9943181818181818 0.9545454545454546
vt 1 0.9545454545454546
vt 0.5681818181818182 0.5227272727272727
vt 0.6136363636363636 0.5227272727272727
vt 0.6136363636363636 0.4772727272727273
vt 0.5681818181818182 0.4772727272727273
vt 1 1
vt 0.9943181818181818 1
vt 0.9943181818181818 0.9545454545454546
vt 1 0.9545454545454546
vt 1 0.9545454545454546
vt 1 1
vt 0.9943181818181818 1
vt 0.9943181818181818 0.9545454545454546
vt 1 0.9545454545454546
vt 1 1
vt 0.9943181818181818 1
vt 0.9943181818181818 0.9545454545454546
vn 0.9238795325112867 0 0.3826834323650897
vn -0.3826834323650897 0 0.9238795325112867
vn -0.9238795325112867 0 -0.3826834323650897
vn 0 1 0
vn 0 -1 0
usemtl m_825b82f6-8ed2-501b-9a50-e5846395849e
f 91/232/58 92/231/58 90/230/58 89/229/58
f 96/236/59 91/235/59 89/234/59 94/233/59
f 95/240/60 96/239/60 94/238/60 93/237/60
f 94/244/61 89/243/61 90/242/61 93/241/61
f 95/248/62 92/247/62 91/246/62 96/245/62
o cube
v 2 0.5 -1
v 2 0.5 -2
v 2 0 -1
v 2 0 -2
v -1 0.5 -2
v -1 0.5 -1
v -1 0 -2
v -1 0 -1
vt 0.09090909090909091 0.5
vt 0.36363636363636365 0.5
vt 0.36363636363636365 0.4545454545454546
vt 0.09090909090909091 0.4545454545454546
vt 0.5511363636363636 1
vt 0.8238636363636364 1
vt 0.8238636363636364 0.9090909090909091
vt 0.5511363636363636 0.9090909090909091
vt 0.09090909090909091 0.6363636363636364
vt 0.36363636363636365 0.6363636363636364
vt 0.36363636363636365 0.5454545454545454
vt 0.09090909090909091 0.5454545454545454
vn 0 0 -1
vn 0 1 0
vn 0 -1 0
usemtl m_825b82f6-8ed2-501b-9a50-e5846395849e
f 100/252/63 103/251/63 101/250/63 98/249/63
f 102/256/64 97/255/64 98/254/64 101/253/64
f 103/260/65 100/259/65 99/258/65 104/257/65
o cube
v 0 0.5 3
v 0 0.5 2
v 0 0 3
v 0 0 2
v -1 0.5 2
v -1 0.5 3
v -1 0 2
v -1 0 3
vt 0.09090909090909091 0.5
vt 0.18181818181818182 0.5
vt 0.18181818181818182 0.4545454545454546
vt 0.09090909090909091 0.4545454545454546
vt 0.5397727272727273 0.6363636363636364
vt 0.6306818181818182 0.6363636363636364
vt 0.6306818181818182 0.5454545454545454
vt 0.5397727272727273 0.5454545454545454
vt 0.2784090909090909 1
vt 0.3693181818181818 1
vt 0.3693181818181818 0.9090909090909091
vt 0.2784090909090909 0.9090909090909091
vn 0 0 1
vn 0 1 0
vn 0 -1 0
usemtl m_825b82f6-8ed2-501b-9a50-e5846395849e
f 112/264/66 107/263/66 105/262/66 110/261/66
f 110/268/67 105/267/67 106/266/67 109/265/67
f 111/272/68 108/271/68 107/270/68 112/269/68
o cube
v -1 0.5 2
v -1 0.5 -1
v -1 0 2
v -1 0 -1
v -2 0.5 -1
v -2 0.5 2
v -2 0 -1
v -2 0 2
vt 0.09090909090909091 0.5
vt 0.36363636363636365 0.5
vt 0.36363636363636365 0.4545454545454546
vt 0.09090909090909091 0.4545454545454546
vt 0.45454545454545453 0.9090909090909091
vt 0.5454545454545454 0.9090909090909091
vt 0.5454545454545454 0.6363636363636364
vt 0.45454545454545453 0.6363636363636364
vt 0 0.9090909090909091
vt 0.09090909090909091 0.9090909090909091
vt 0.09090909090909091 0.6363636363636364
vt 0 0.6363636363636364
vn -1 0 0
vn 0 1 0
vn 0 -1 0
usemtl m_825b82f6-8ed2-501b-9a50-e5846395849e
f 119/276/69 120/275/69 118/274/69 117/273/69
f 118/280/70 113/279/70 114/278/70 117/277/70
f 119/284/71 116/283/71 115/282/71 120/281/71
o cube
v 3 0.5 2
v 3 0.5 -1
v 3 0 2
v 3 0 -1
v 2 0.5 -1
v 2 0.5 2
v 2 0 -1
v 2 0 2
vt 0.09090909090909091 0.5
vt 0.36363636363636365 0.5
vt 0.36363636363636365 0.4545454545454546
vt 0.09090909090909091 0.4545454545454546
vt 0.8181818181818182 0.9090909090909091
vt 0.9090909090909091 0.9090909090909091
vt 0.9090909090909091 0.6363636363636364
vt 0.8181818181818182 0.6363636363636364
vt 0.36363636363636365 0.9090909090909091
vt 0.45454545454545453 0.9090909090909091
vt 0.45454545454545453 0.6363636363636364
vt 0.36363636363636365 0.6363636363636364
vn 1 0 0
vn 0 1 0
vn 0 -1 0
usemtl m_825b82f6-8ed2-501b-9a50-e5846395849e
f 123/288/72 124/287/72 122/286/72 121/285/72
f 126/292/73 121/291/73 122/290/73 125/289/73
f 127/296/74 124/295/74 123/294/74 128/293/74
o cube
v 2 0.5 3
v 2 0.5 2
v 2 0 3
v 2 0 2
v 1 0.5 2
v 1 0.5 3
v 1 0 2
v 1 0 3
vt 0.2727272727272727 0.5
vt 0.36363636363636365 0.5
vt 0.36363636363636365 0.4545454545454546
vt 0.2727272727272727 0.4545454545454546
vt 0.7272727272727273 0.6363636363636364
vt 0.8181818181818182 0.6363636363636364
vt 0.8181818181818182 0.5454545454545454
vt 0.7272727272727273 0.5454545454545454
vt 0.09090909090909091 1
vt 0.18181818181818182 1
vt 0.18181818181818182 0.9090909090909091
vt 0.09090909090909091 0.9090909090909091
vn 0 0 1
vn 0 1 0
vn 0 -1 0
usemtl m_825b82f6-8ed2-501b-9a50-e5846395849e
f 136/300/75 131/299/75 129/298/75 134/297/75
f 134/304/76 129/303/76 130/302/76 133/301/76
f 135/308/77 132/307/77 131/306/77 136/305/77
o cube
v 3 1 -1
v 3 1 -2
v 3 0 -1
v 3 0 -2
v 2 1 -2
v 2 1 -1
v 2 0 -2
v 2 0 -1
vt 0 0.4545454545454546
vt 0.09090909090909091 0.4545454545454546
vt 0.09090909090909091 0.36363636363636365
vt 0 0.36363636363636365
vt 0.36363636363636365 0.4545454545454546
vt 0.45454545454545453 0.4545454545454546
vt 0.45454545454545453 0.36363636363636365
vt 0.36363636363636365 0.36363636363636365
vt 0.09659090909090909 0.5454545454545454
vt 0.1875 0.5454545454545454
vt 0.1875 0.4545454545454546
vt 0.09659090909090909 0.4545454545454546
vt 0.2727272727272727 0.5454545454545454
vt 0.36363636363636365 0.5454545454545454
vt 0.36363636363636365 0.4545454545454546
vt 0.2727272727272727 0.4545454545454546
vt 0 0.36363636363636365
vt 0.09090909090909091 0.36363636363636365
vt 0.09090909090909091 0.2727272727272727
vt 0 0.2727272727272727
vt 0.36363636363636365 0.6363636363636364
vt 0.45454545454545453 0.6363636363636364
vt 0.45454545454545453 0.5454545454545454
vt 0.36363636363636365 0.5454545454545454
vn 0 0 -1
vn 1 0 0
vn 0 0 1
vn -1 0 0
vn 0 1 0
vn 0 -1 0
usemtl m_825b82f6-8ed2-501b-9a50-e5846395849e
f 140/312/78 143/311/78 141/310/78 138/309/78
f 139/316/79 140/315/79 138/314/79 137/313/79
f 144/320/80 139/319/80 137/318/80 142/317/80
f 143/324/81 144/323/81 142/322/81 141/321/81
f 142/328/82 137/327/82 138/326/82 141/325/82
f 143/332/83 140/331/83 139/330/83 144/329/83
o cube
v -1 1 -1
v -1 1 -2
v -1 0 -1
v -1 0 -2
v -2 1 -2
v -2 1 -1
v -2 0 -2
v -2 0 -1
vt 0.36363636363636365 0.4545454545454546
vt 0.45454545454545453 0.4545454545454546
vt 0.45454545454545453 0.36363636363636365
vt 0.36363636363636365 0.36363636363636365
vt 0.2727272727272727 0.5454545454545454
vt 0.36363636363636365 0.5454545454545454
vt 0.36363636363636365 0.4545454545454546
vt 0.2727272727272727 0.4545454545454546
vt 0.2727272727272727 0.5454545454545454
vt 0.36363636363636365 0.5454545454545454
vt 0.36363636363636365 0.4545454545454546
vt 0.2727272727272727 0.4545454545454546
vt 0 0.4545454545454546
vt 0.09090909090909091 0.4545454545454546
vt 0.09090909090909091 0.36363636363636365
vt 0 0.36363636363636365
vt 0 0.36363636363636365
vt 0.09090909090909091 0.36363636363636365
vt 0.09090909090909091 0.2727272727272727
vt 0 0.2727272727272727
vt 0 0.6363636363636364
vt 0.09090909090909091 0.6363636363636364
vt 0.09090909090909091 0.5454545454545454
vt 0 0.5454545454545454
vn 0 0 -1
vn 1 0 0
vn 0 0 1
vn -1 0 0
vn 0 1 0
vn 0 -1 0
usemtl m_825b82f6-8ed2-501b-9a50-e5846395849e
f 148/336/84 151/335/84 149/334/84 146/333/84
f 147/340/85 148/339/85 146/338/85 145/337/85
f 152/344/86 147/343/86 145/342/86 150/341/86
f 151/348/87 152/347/87 150/346/87 149/345/87
f 150/352/88 145/351/88 146/350/88 149/349/88
f 151/356/89 148/355/89 147/354/89 152/353/89
o cube
v -1 1 3
v -1 1 2
v -1 0 3
v -1 0 2
v -2 1 2
v -2 1 3
v -2 0 2
v -2 0 3
vt 0.2727272727272727 0.5454545454545454
vt 0.36363636363636365 0.5454545454545454
vt 0.36363636363636365 0.4545454545454546
vt 0.2727272727272727 0.4545454545454546
vt 0.2727272727272727 0.5454545454545454
vt 0.36363636363636365 0.5454545454545454
vt 0.36363636363636365 0.4545454545454546
vt 0.2727272727272727 0.4545454545454546
vt 0 0.4545454545454546
vt 0.09090909090909091 0.4545454545454546
vt 0.09090909090909091 0.36363636363636365
vt 0 0.36363636363636365
vt 0.36363636363636365 0.4545454545454546
vt 0.45454545454545453 0.4545454545454546
vt 0.45454545454545453 0.36363636363636365
vt 0.36363636363636365 0.36363636363636365
vt 0 0.36363636363636365
vt 0.09090909090909091 0.36363636363636365
vt 0.09090909090909091 0.2727272727272727
vt 0 0.2727272727272727
vt 0 1
vt 0.09090909090909091 1
vt 0.09090909090909091 0.9090909090909091
vt 0 0.9090909090909091
vn 0 0 -1
vn 1 0 0
vn 0 0 1
vn -1 0 0
vn 0 1 0
vn 0 -1 0
usemtl m_825b82f6-8ed2-501b-9a50-e5846395849e
f 156/360/90 159/359/90 157/358/90 154/357/90
f 155/364/91 156/363/91 154/362/91 153/361/91
f 160/368/92 155/367/92 153/366/92 158/365/92
f 159/372/93 160/371/93 158/370/93 157/369/93
f 158/376/94 153/375/94 154/374/94 157/373/94
f 159/380/95 156/379/95 155/378/95 160/377/95
o cube
v 3 1 3
v 3 1 2
v 3 0 3
v 3 0 2
v 2 1 2
v 2 1 3
v 2 0 2
v 2 0 3
vt 0.2727272727272727 0.5454545454545454
vt 0.36363636363636365 0.5454545454545454
vt 0.36363636363636365 0.4545454545454546
vt 0.2727272727272727 0.4545454545454546
vt 0 0.4545454545454546
vt 0.09090909090909091 0.4545454545454546
vt 0.09090909090909091 0.36363636363636365
vt 0 0.36363636363636365
vt 0.36363636363636365 0.4545454545454546
vt 0.45454545454545453 0.4545454545454546
vt 0.45454545454545453 0.36363636363636365
vt 0.36363636363636365 0.36363636363636365
vt 0.2727272727272727 0.5454545454545454
vt 0.36363636363636365 0.5454545454545454
vt 0.36363636363636365 0.4545454545454546
vt 0.2727272727272727 0.4545454545454546
vt 0 0.36363636363636365
vt 0.09090909090909091 0.36363636363636365
vt 0.09090909090909091 0.2727272727272727
vt 0 0.2727272727272727
vt 0.36363636363636365 1
vt 0.45454545454545453 1
vt 0.45454545454545453 0.9090909090909091
vt 0.36363636363636365 0.9090909090909091
vn 0 0 -1
vn 1 0 0
vn 0 0 1
vn -1 0 0
vn 0 1 0
vn 0 -1 0
usemtl m_825b82f6-8ed2-501b-9a50-e5846395849e
f 164/384/96 167/383/96 165/382/96 162/381/96
f 163/388/97 164/387/97 162/386/97 161/385/97
f 168/392/98 163/391/98 161/390/98 166/389/98
f 167/396/99 168/395/99 166/394/99 165/393/99
f 166/400/100 161/399/100 162/398/100 165/397/100
f 167/404/101 164/403/101 163/402/101 168/401/101
o cube
v 0.1875 1 2.8125
v 0.1875 1 2.1875
v 0.1875 0.9375 2.8125
v 0.1875 0.9375 2.1875
v 0.1875 1 2.1875
v 0.1875 1 2.8125
v 0.1875 0.9375 2.1875
v 0.1875 0.9375 2.8125
vt 0.75 1
vt 0.75 1
vt 0.75 0.9375
vt 0.75 0.9375
vt 0.9318181818181818 0.5284090909090908
vt 0.9886363636363636 0.5284090909090908
vt 0.9886363636363636 0.5340909090909092
vt 0.9318181818181818 0.5340909090909092
vt 0 1
vt 0 1
vt 0 0.9375
vt 0 0.9375
vt 0 0.9375
vt 0 0.9375
vt 0 0.3125
vt 0 0.3125
vt 0 0.9375
vt 0 0.9375
vt 0 0.3125
vt 0 0.3125
vn 0 0 -1
vn 1 0 0
vn 0 0 1
vn 0 1 0
vn 0 -1 0
usemtl none
f 172/408/102 175/407/102 173/406/102 170/405/102
usemtl m_825b82f6-8ed2-501b-9a50-e5846395849e
f 171/412/103 172/411/103 170/410/103 169/409/103
usemtl none
f 176/416/104 171/415/104 169/414/104 174/413/104
f 174/420/105 169/419/105 170/418/105 173/417/105
f 175/424/106 172/423/106 171/422/106 176/421/106
o cube
v 0.8125 1 2.8125
v 0.8125 1 2.1875
v 0.8125 0.9375 2.8125
v 0.8125 0.9375 2.1875
v 0.8125 1 2.1875
v 0.8125 1 2.8125
v 0.8125 0.9375 2.1875
v 0.8125 0.9375 2.8125
vt 0.75 1
vt 0.75 1
vt 0.75 0.9375
vt 0.75 0.9375
vt 0 1
vt 0 1
vt 0 0.9375
vt 0 0.9375
vt 0.9318181818181818 0.5284090909090908
vt 0.9886363636363636 0.5284090909090908
vt 0.9886363636363636 0.5340909090909092
vt 0.9318181818181818 0.5340909090909092
vt 0 0.9375
vt 0 0.9375
vt 0 0.3125
vt 0 0.3125
vt 0 0.9375
vt 0 0.9375
vt 0 0.3125
vt 0 0.3125
vn 0 0 -1
vn 0 0 1
vn -1 0 0
vn 0 1 0
vn 0 -1 0
usemtl none
f 180/428/107 183/427/107 181/426/107 178/425/107
f 184/432/108 179/431/108 177/430/108 182/429/108
usemtl m_825b82f6-8ed2-501b-9a50-e5846395849e
f 183/436/109 184/435/109 182/434/109 181/433/109
usemtl none
f 182/440/110 177/439/110 178/438/110 181/437/110
f 183/444/111 180/443/111 179/442/111 184/441/111
o cube
v 0.8125 1 2.1875
v 0.8125 1 2.1875
v 0.8125 0.9375 2.1875
v 0.8125 0.9375 2.1875
v 0.1875 1 2.1875
v 0.1875 1 2.1875
v 0.1875 0.9375 2.1875
v 0.1875 0.9375 2.1875
vt 0.9261363636363636 0.5284090909090908
vt 0.9829545454545454 0.5284090909090908
vt 0.9829545454545454 0.5340909090909092
vt 0.9261363636363636 0.5340909090909092
vn 0 0 1
usemtl m_825b82f6-8ed2-501b-9a50-e5846395849e
f 192/448/112 187/447/112 185/446/112 190/445/112
o cube
v 0.8125 1 2.8125
v 0.8125 1 2.8125
v 0.8125 0.9375 2.8125
v 0.8125 0.9375 2.8125
v 0.1875 1 2.8125
v 0.1875 1 2.8125
v 0.1875 0.9375 2.8125
v 0.1875 0.9375 2.8125
vt 0.9261363636363636 0.5284090909090908
vt 0.9829545454545454 0.5284090909090908
vt 0.9829545454545454 0.5340909090909092
vt 0.9261363636363636 0.5340909090909092
vt 0.75 1
vt 0.75 1
vt 0.75 0.9375
vt 0.75 0.9375
vt 0 1
vt 0 1
vt 0 0.9375
vt 0 0.9375
vt 0 1
vt 0.625 1
vt 0.625 1
vt 0 1
vt 0 0.25
vt 0.625 0.25
vt 0.625 0.25
vt 0 0.25
vn 0 0 -1
vn 1 0 0
vn -1 0 0
vn 0 1 0
vn 0 -1 0
usemtl m_825b82f6-8ed2-501b-9a50-e5846395849e
f 196/452/113 199/451/113 197/450/113 194/449/113
usemtl none
f 195/456/114 196/455/114 194/454/114 193/453/114
f 199/460/115 200/459/115 198/458/115 197/457/115
f 198/464/116 193/463/116 194/462/116 197/461/116
f 199/468/117 196/467/117 195/466/117 200/465/117
o cube
v 1 1 3
v 1 1 2
v 1 0 3
v 1 0 2
v 0 1 2
v 0 1 3
v 0 0 2
v 0 0 3
vt 0.09090909090909091 0.5454545454545454
vt 0.18181818181818182 0.5454545454545454
vt 0.18181818181818182 0.4545454545454546
vt 0.09090909090909091 0.4545454545454546
vt 0.18181818181818182 0.5454545454545454
vt 0.2727272727272727 0.5454545454545454
vt 0.2727272727272727 0.4545454545454546
vt 0.18181818181818182 0.4545454545454546
vt 0.2727272727272727 0.5454545454545454
vt 0.36363636363636365 0.5454545454545454
vt 0.36363636363636365 0.4545454545454546
vt 0.2727272727272727 0.4545454545454546
vt 0.9090909090909091 0.5454545454545454
vt 1 0.5454545454545454
vt 1 0.4545454545454546
vt 0.9090909090909091 0.4545454545454546
vt 0.18181818181818182 1
vt 0.2727272727272727 1
vt 0.2727272727272727 0.9090909090909091
vt 0.18181818181818182 0.9090909090909091
vn 1 0 0
vn 0 0 1
vn -1 0 0
vn 0 1 0
vn 0 -1 0
usemtl m_825b82f6-8ed2-501b-9a50-e5846395849e
f 203/472/118 204/471/118 202/470/118 201/469/118
f 208/476/119 203/475/119 201/474/119 206/473/119
f 207/480/120 208/479/120 206/478/120 205/477/120
f 206/484/121 201/483/121 202/482/121 205/481/121
f 207/488/122 204/487/122 203/486/122 208/485/122
o cube
v 0.8125 0.9375 2.8125
v 0.8125 0.9375 2.1875
v 0.8125 0.9375 2.8125
v 0.8125 0.9375 2.1875
v 0.1875 0.9375 2.1875
v 0.1875 0.9375 2.8125
v 0.1875 0.9375 2.1875
v 0.1875 0.9375 2.8125
vt 0.017045454545454544 0.34659090909090906
vt 0.07386363636363637 0.34659090909090906
vt 0.07386363636363637 0.2897727272727273
vt 0.017045454545454544 0.2897727272727273
vn 0 1 0
usemtl m_825b82f6-8ed2-501b-9a50-e5846395849e
f 214/492/123 209/491/123 210/490/123 213/489/123
o cube
v 1.0006249999999999 1.0006249999999999 3.0006249999999999
v 1.0006249999999999 1.0006249999999999 2.9993750000000001
v 1.0006249999999999 -0.00062499999999998668 3.0006249999999999
v 1.0006249999999999 -0.00062499999999998668 2.9993750000000001
v -0.00062499999999987566 1.0006249999999999 2.9993750000000001
v -0.00062499999999987566 1.0006249999999999 3.0006249999999999
v -0.00062499999999987566 -0.00062499999999998668 2.9993750000000001
v -0.00062499999999987566 -0.00062499999999998668 3.0006249999999999
vt 0.9090909090909091 0.6363636363636364
vt 1 0.6363636363636364
vt 1 0.5454545454545454
vt 0.9090909090909091 0.5454545454545454
vn 0 0 1
usemtl m_825b82f6-8ed2-501b-9a50-e5846395849e
f 224/496/124 219/495/124 217/494/124 222/493/124
o core_top
v -1.5 3.125 2.6875
v -1.5 3.125 2.3125
v -1.5 2.875 2.6875
v -1.5 2.875 2.3125
v -1.75 3.125 2.3125
v -1.75 3.125 2.6875
v -1.75 2.875 2.3125
v -1.75 2.875 2.6875
vt 0.25 1
vt 0.375 1
vt 0.375 0.875
vt 0.25 0.875
vt 0.25 1
vt 0.375 1
vt 0.375 0.875
vt 0.25 0.875
vt 0.375 1
vt 0.25 1
vt 0.25 0.875
vt 0.375 0.875
vt 0.625 1
vt 0.75 1
vt 0.75 0.875
vt 0.625 0.875
vt 0.625 0.875
vt 0.75 0.875
vt 0.75 0.75
vt 0.625 0.75
vt 0 1
vt 0 1
vt 0 1
vt 0 1
vn 0 0 -1
vn 1 0 0
vn 0 0 1
vn -1 0 0
vn 0 1 0
vn 0 -1 0
usemtl m_d7c9d6c4-bd71-9113-d448-167525cdab35
f 228/500/125 231/499/125 229/498/125 226/497/125
f 227/504/126 228/503/126 226/502/126 225/501/126
f 232/508/127 227/507/127 225/506/127 230/505/127
f 231/512/128 232/511/128 230/510/128 229/509/128
f 230/516/129 225/515/129 226/514/129 229/513/129
f 231/520/130 228/519/130 227/518/130 232/517/130
o core_bottom
v -1.25 2.3125 2.6875
v -1.25 2.3125 2.3125
v -1.25 2.0625 2.6875
v -1.25 2.0625 2.3125
v -1.5 2.3125 2.3125
v -1.5 2.3125 2.6875
v -1.5 2.0625 2.3125
v -1.5 2.0625 2.6875
vt 0.25 0.875
vt 0.375 0.875
vt 0.375 0.75
vt 0.25 0.75
vt 0.625 0.75
vt 0.75 0.75
vt 0.75 0.625
vt 0.625 0.625
vt 0.375 0.875
vt 0.25 0.875
vt 0.25 0.75
vt 0.375 0.75
vt 0 0.6875
vt 0.125 0.6875
vt 0.125 0.5625
vt 0 0.5625
vt 0 1
vt 0 1
vt 0 1
vt 0 1
vt 0 0.6875
vt 0.125 0.6875
vt 0.125 0.5625
vt 0 0.5625
vn 0 0 -1
vn 1 0 0
vn 0 0 1
vn -1 0 0
vn 0 1 0
vn 0 -1 0
usemtl m_d7c9d6c4-bd71-9113-d448-167525cdab35
f 236/524/131 239/523/131 237/522/131 234/521/131
f 235/528/132 236/527/132 234/526/132 233/525/132
f 240/532/133 235/531/133 233/530/133 238/529/133
f 239/536/134 240/535/134 238/534/134 237/533/134
f 238/540/135 233/539/135 234/538/135 237/537/135
f 239/544/136 236/543/136 235/542/136 240/541/136
o core_base
v -1.25 2.875 2.6875
v -1.25 2.875 2.3125
v -1.25 2.3125 2.6875
v -1.25 2.3125 2.3125
v -1.75 2.875 2.3125
v -1.75 2.875 2.6875
v -1.75 2.3125 2.3125
v -1.75 2.3125 2.6875
vt 0 1
vt 0.25 1
vt 0.25 0.6875
vt 0 0.6875
vt 0.375 1
vt 0.5 1
vt 0.5 0.6875
vt 0.375 0.6875
vt 0.25 1
vt 0 1
vt 0 0.6875
vt 0.25 0.6875
vt 0.5 1
vt 0.625 1
vt 0.625 0.6875
vt 0.5 0.6875
vt 0.375 0.6875
vt 0.625 0.6875
vt 0.625 0.5625
vt 0.375 0.5625
vt 0 0.6875
vt 0.25 0.6875
vt 0.25 0.5625
vt 0 0.5625
vn 0 0 -1
vn 1 0 0
vn 0 0 1
vn -1 0 0
vn 0 1 0
vn 0 -1 0
usemtl m_d7c9d6c4-bd71-9113-d448-167525cdab35
f 244/548/137 247/547/137 245/546/137 242/545/137
f 243/552/138 244/551/138 242/550/138 241/549/138
f 248/556/139 243/555/139 241/554/139 246/553/139
f 247/560/140 248/559/140 246/558/140 245/557/140
f 246/564/141 241/563/141 242/562/141 245/561/141
f 247/568/142 244/567/142 243/566/142 248/565/142
o core_base
v 2.75 2.875 2.6875
v 2.75 2.875 2.3125
v 2.75 2.3125 2.6875
v 2.75 2.3125 2.3125
v 2.25 2.875 2.3125
v 2.25 2.875 2.6875
v 2.25 2.3125 2.3125
v 2.25 2.3125 2.6875
vt 0 1
vt 0.25 1
vt 0.25 0.6875
vt 0 0.6875
vt 0.375 1
vt 0.5 1
vt 0.5 0.6875
vt 0.375 0.6875
vt 0.25 1
vt 0 1
vt 0 0.6875
vt 0.25 0.6875
vt 0.5 1
vt 0.625 1
vt 0.625 0.6875
vt 0.5 0.6875
vt 0.375 0.6875
vt 0.625 0.6875
vt 0.625 0.5625
vt 0.375 0.5625
vt 0 0.6875
vt 0.25 0.6875
vt 0.25 0.5625
vt 0 0.5625
vn 0 0 -1
vn 1 0 0
vn 0 0 1
vn -1 0 0
vn 0 1 0
vn 0 -1 0
usemtl m_d7c9d6c4-bd71-9113-d448-167525cdab35
f 252/572/143 255/571/143 253/570/143 250/569/143
f 251/576/144 252/575/144 250/574/144 249/573/144
f 256/580/145 251/579/145 249/578/145 254/577/145
f 255/584/146 256/583/146 254/582/146 253/581/146
f 254/588/147 249/587/147 250/586/147 253/585/147
f 255/592/148 252/591/148 251/590/148 256/589/148
o core_top
v 2.5 3.125 2.6875
v 2.5 3.125 2.3125
v 2.5 2.875 2.6875
v 2.5 2.875 2.3125
v 2.25 3.125 2.3125
v 2.25 3.125 2.6875
v 2.25 2.875 2.3125
v 2.25 2.875 2.6875
vt 0.25 1
vt 0.375 1
vt 0.375 0.875
vt 0.25 0.875
vt 0.25 1
vt 0.375 1
vt 0.375 0.875
vt 0.25 0.875
vt 0.375 1
vt 0.25 1
vt 0.25 0.875
vt 0.375 0.875
vt 0.625 1
vt 0.75 1
vt 0.75 0.875
vt 0.625 0.875
vt 0.625 0.875
vt 0.75 0.875
vt 0.75 0.75
vt 0.625 0.75
vt 0 1
vt 0 1
vt 0 1
vt 0 1
vn 0 0 -1
vn 1 0 0
vn 0 0 1
vn -1 0 0
vn 0 1 0
vn 0 -1 0
usemtl m_d7c9d6c4-bd71-9113-d448-167525cdab35
f 260/596/149 263/595/149 261/594/149 258/593/149
f 259/600/150 260/599/150 258/598/150 257/597/150
f 264/604/151 259/603/151 257/602/151 262/601/151
f 263/608/152 264/607/152 262/606/152 261/605/152
f 262/612/153 257/611/153 258/610/153 261/609/153
f 263/616/154 260/615/154 259/614/154 264/613/154
o core_bottom
v 2.75 2.3125 2.6875
v 2.75 2.3125 2.3125
v 2.75 2.0625 2.6875
v 2.75 2.0625 2.3125
v 2.5 2.3125 2.3125
v 2.5 2.3125 2.6875
v 2.5 2.0625 2.3125
v 2.5 2.0625 2.6875
vt 0.25 0.875
vt 0.375 0.875
vt 0.375 0.75
vt 0.25 0.75
vt 0.625 0.75
vt 0.75 0.75
vt 0.75 0.625
vt 0.625 0.625
vt 0.375 0.875
vt 0.25 0.875
vt 0.25 0.75
vt 0.375 0.75
vt 0 0.6875
vt 0.125 0.6875
vt 0.125 0.5625
vt 0 0.5625
vt 0 1
vt 0 1
vt 0 1
vt 0 1
vt 0 0.6875
vt 0.125 0.6875
vt 0.125 0.5625
vt 0 0.5625
vn 0 0 -1
vn 1 0 0
vn 0 0 1
vn -1 0 0
vn 0 1 0
vn 0 -1 0
usemtl m_d7c9d6c4-bd71-9113-d448-167525cdab35
f 268/620/155 271/619/155 269/618/155 266/617/155
f 267/624/156 268/623/156 266/622/156 265/621/156
f 272/628/157 267/627/157 265/626/157 270/625/157
f 271/632/158 272/631/158 270/630/158 269/629/158
f 270/636/159 265/635/159 266/634/159 269/633/159
f 271/640/160 268/639/160 267/638/160 272/637/160
o core_top
v -1.5 3.125 -1.3125
v -1.5 3.125 -1.6875
v -1.5 2.875 -1.3125
v -1.5 2.875 -1.6875
v -1.75 3.125 -1.6875
v -1.75 3.125 -1.3125
v -1.75 2.875 -1.6875
v -1.75 2.875 -1.3125
vt 0.25 1
vt 0.375 1
vt 0.375 0.875
vt 0.25 0.875
vt 0.25 1
vt 0.375 1
vt 0.375 0.875
vt 0.25 0.875
vt 0.375 1
vt 0.25 1
vt 0.25 0.875
vt 0.375 0.875
vt 0.625 1
vt 0.75 1
vt 0.75 0.875
vt 0.625 0.875
vt 0.625 0.875
vt 0.75 0.875
vt 0.75 0.75
vt 0.625 0.75
vt 0 1
vt 0 1
vt 0 1
vt 0 1
vn 0 0 -1
vn 1 0 0
vn 0 0 1
vn -1 0 0
vn 0 1 0
vn 0 -1 0
usemtl m_d7c9d6c4-bd71-9113-d448-167525cdab35
f 276/644/161 279/643/161 277/642/161 274/641/161
f 275/648/162 276/647/162 274/646/162 273/645/162
f 280/652/163 275/651/163 273/650/163 278/649/163
f 279/656/164 280/655/164 278/654/164 277/653/164
f 278/660/165 273/659/165 274/658/165 277/657/165
f 279/664/166 276/663/166 275/662/166 280/661/166
o core_base
v -1.25 2.875 -1.3125
v -1.25 2.875 -1.6875
v -1.25 2.3125 -1.3125
v -1.25 2.3125 -1.6875
v -1.75 2.875 -1.6875
v -1.75 2.875 -1.3125
v -1.75 2.3125 -1.6875
v -1.75 2.3125 -1.3125
vt 0 1
vt 0.25 1
vt 0.25 0.6875
vt 0 0.6875
vt 0.375 1
vt 0.5 1
vt 0.5 0.6875
vt 0.375 0.6875
vt 0.25 1
vt 0 1
vt 0 0.6875
vt 0.25 0.6875
vt 0.5 1
vt 0.625 1
vt 0.625 0.6875
vt 0.5 0.6875
vt 0.375 0.6875
vt 0.625 0.6875
vt 0.625 0.5625
vt 0.375 0.5625
vt 0 0.6875
vt 0.25 0.6875
vt 0.25 0.5625
vt 0 0.5625
vn 0 0 -1
vn 1 0 0
vn 0 0 1
vn -1 0 0
vn 0 1 0
vn 0 -1 0
usemtl m_d7c9d6c4-bd71-9113-d448-167525cdab35
f 284/668/167 287/667/167 285/666/167 282/665/167
f 283/672/168 284/671/168 282/670/168 281/669/168
f 288/676/169 283/675/169 281/674/169 286/673/169
f 287/680/170 288/679/170 286/678/170 285/677/170
f 286/684/171 281/683/171 282/682/171 285/681/171
f 287/688/172 284/687/172 283/686/172 288/685/172
o core_bottom
v -1.25 2.3125 -1.3125
v -1.25 2.3125 -1.6875
v -1.25 2.0625 -1.3125
v -1.25 2.0625 -1.6875
v -1.5 2.3125 -1.6875
v -1.5 2.3125 -1.3125
v -1.5 2.0625 -1.6875
v -1.5 2.0625 -1.3125
vt 0.25 0.875
vt 0.375 0.875
vt 0.375 0.75
vt 0.25 0.75
vt 0.625 0.75
vt 0.75 0.75
vt 0.75 0.625
vt 0.625 0.625
vt 0.375 0.875
vt 0.25 0.875
vt 0.25 0.75
vt 0.375 0.75
vt 0 0.6875
vt 0.125 0.6875
vt 0.125 0.5625
vt 0 0.5625
vt 0 1
vt 0 1
vt 0 1
vt 0 1
vt 0 0.6875
vt 0.125 0.6875
vt 0.125 0.5625
vt 0 0.5625
vn 0 0 -1
vn 1 0 0
vn 0 0 1
vn -1 0 0
vn 0 1 0
vn 0 -1 0
usemtl m_d7c9d6c4-bd71-9113-d448-167525cdab35
f 292/692/173 295/691/173 293/690/173 290/689/173
f 291/696/174 292/695/174 290/694/174 289/693/174
f 296/700/175 291/699/175 289/698/175 294/697/175
f 295/704/176 296/703/176 294/702/176 293/701/176
f 294/708/177 289/707/177 290/706/177 293/705/177
f 295/712/178 292/711/178 291/710/178 296/709/178
o core_bottom
v 2.75 2.3125 -1.3125
v 2.75 2.3125 -1.6875
v 2.75 2.0625 -1.3125
v 2.75 2.0625 -1.6875
v 2.5 2.3125 -1.6875
v 2.5 2.3125 -1.3125
v 2.5 2.0625 -1.6875
v 2.5 2.0625 -1.3125
vt 0.25 0.875
vt 0.375 0.875
vt 0.375 0.75
vt 0.25 0.75
vt 0.625 0.75
vt 0.75 0.75
vt 0.75 0.625
vt 0.625 0.625
vt 0.375 0.875
vt 0.25 0.875
vt 0.25 0.75
vt 0.375 0.75
vt 0 0.6875
vt 0.125 0.6875
vt 0.125 0.5625
vt 0 0.5625
vt 0 1
vt 0 1
vt 0 1
vt 0 1
vt 0 0.6875
vt 0.125 0.6875
vt 0.125 0.5625
vt 0 0.5625
vn 0 0 -1
vn 1 0 0
vn 0 0 1
vn -1 0 0
vn 0 1 0
vn 0 -1 0
usemtl m_d7c9d6c4-bd71-9113-d448-167525cdab35
f 300/716/179 303/715/179 301/714/179 298/713/179
f 299/720/180 300/719/180 298/718/180 297/717/180
f 304/724/181 299/723/181 297/722/181 302/721/181
f 303/728/182 304/727/182 302/726/182 301/725/182
f 302/732/183 297/731/183 298/730/183 301/729/183
f 303/736/184 300/735/184 299/734/184 304/733/184
o core_base
v 2.75 2.875 -1.3125
v 2.75 2.875 -1.6875
v 2.75 2.3125 -1.3125
v 2.75 2.3125 -1.6875
v 2.25 2.875 -1.6875
v 2.25 2.875 -1.3125
v 2.25 2.3125 -1.6875
v 2.25 2.3125 -1.3125
vt 0 1
vt 0.25 1
vt 0.25 0.6875
vt 0 0.6875
vt 0.375 1
vt 0.5 1
vt 0.5 0.6875
vt 0.375 0.6875
vt 0.25 1
vt 0 1
vt 0 0.6875
vt 0.25 0.6875
vt 0.5 1
vt 0.625 1
vt 0.625 0.6875
vt 0.5 0.6875
vt 0.375 0.6875
vt 0.625 0.6875
vt 0.625 0.5625
vt 0.375 0.5625
vt 0 0.6875
vt 0.25 0.6875
vt 0.25 0.5625
vt 0 0.5625
vn 0 0 -1
vn 1 0 0
vn 0 0 1
vn -1 0 0
vn 0 1 0
vn 0 -1 0
usemtl m_d7c9d6c4-bd71-9113-d448-167525cdab35
f 308/740/185 311/739/185 309/738/185 306/737/185
f 307/744/186 308/743/186 306/742/186 305/741/186
f 312/748/187 307/747/187 305/746/187 310/745/187
f 311/752/188 312/751/188 310/750/188 309/749/188
f 310/756/189 305/755/189 306/754/189 309/753/189
f 311/760/190 308/759/190 307/758/190 312/757/190
o core_top
v 2.5 3.125 -1.3125
v 2.5 3.125 -1.6875
v 2.5 2.875 -1.3125
v 2.5 2.875 -1.6875
v 2.25 3.125 -1.6875
v 2.25 3.125 -1.3125
v 2.25 2.875 -1.6875
v 2.25 2.875 -1.3125
vt 0.25 1
vt 0.375 1
vt 0.375 0.875
vt 0.25 0.875
vt 0.25 1
vt 0.375 1
vt 0.375 0.875
vt 0.25 0.875
vt 0.375 1
vt 0.25 1
vt 0.25 0.875
vt 0.375 0.875
vt 0.625 1
vt 0.75 1
vt 0.75 0.875
vt 0.625 0.875
vt 0.625 0.875
vt 0.75 0.875
vt 0.75 0.75
vt 0.625 0.75
vt 0 1
vt 0 1
vt 0 1
vt 0 1
vn 0 0 -1
vn 1 0 0
vn 0 0 1
vn -1 0 0
vn 0 1 0
vn 0 -1 0
usemtl m_d7c9d6c4-bd71-9113-d448-167525cdab35
f 316/764/191 319/763/191 317/762/191 314/761/191
f 315/768/192 316/767/192 314/766/192 313/765/192
f 320/772/193 315/771/193 313/770/193 318/769/193
f 319/776/194 320/775/194 318/774/194 317/773/194
f 318/780/195 313/779/195 314/778/195 317/777/195
f 319/784/196 316/783/196 315/782/196 320/781/196
