# Made in Blockbench 5.1.4
mtllib model_off.mtl

o cube
v 2 1 2
v 2 1 -1
v 2 0 2
v 2 0 -1
v -1 1 -1
v -1 1 2
v -1 0 -1
v -1 0 2
vt 0.09090909090909091 0.5454545454545454
vt 0.36363636363636365 0.5454545454545454
vt 0.36363636363636365 0.4545454545454546
vt 0.09090909090909091 0.4545454545454546
vt 0.09090909090909091 0.5454545454545454
vt 0.36363636363636365 0.5454545454545454
vt 0.36363636363636365 0.4545454545454546
vt 0.09090909090909091 0.4545454545454546
vt 0.09090909090909091 0.5454545454545454
vt 0.36363636363636365 0.5454545454545454
vt 0.36363636363636365 0.4545454545454546
vt 0.09090909090909091 0.4545454545454546
vt 0.09090909090909091 0.5454545454545454
vt 0.36363636363636365 0.5454545454545454
vt 0.36363636363636365 0.4545454545454546
vt 0.09090909090909091 0.4545454545454546
vt 0.5454545454545454 0.9034090909090909
vt 0.8181818181818182 0.9034090909090909
vt 0.8181818181818182 0.6306818181818181
vt 0.5454545454545454 0.6306818181818181
vt 0.09303977272727272 0.9147727272727273
vt 0.36576704545454547 0.9147727272727273
vt 0.36576704545454547 0.6363636363636364
vt 0.09303977272727272 0.6363636363636364
vn 0 0 -1
vn 1 0 0
vn 0 0 1
vn -1 0 0
vn 0 1 0
vn 0 -1 0
usemtl m_825b82f6-8ed2-501b-9a50-e5846395849e
f 4/4/1 7/3/1 5/2/1 2/1/1
f 3/8/2 4/7/2 2/6/2 1/5/2
f 8/12/3 3/11/3 1/10/3 6/9/3
f 7/16/4 8/15/4 6/14/4 5/13/4
f 6/20/5 1/19/5 2/18/5 5/17/5
f 7/24/6 4/23/6 3/22/6 8/21/6
o connector4
v -0.28125 1.6875 -1.34375
v -0.257332285477182 1.6875 -1.40149247078196
v -0.28125 1.4375 -1.34375
v -0.257332285477182 1.4375 -1.40149247078196
v -0.95024193486065 1.6875 -1.68850504505577
v -0.97415964938346 1.6875 -1.63076257427382
v -0.95024193486065 1.4375 -1.68850504505577
v -0.97415964938346 1.4375 -1.63076257427382
vt 0.9318181818181818 1
vt 0.9318181818181818 0.9545454545454546
vt 0.9090909090909091 0.9545454545454546
vt 0.9090909090909091 1
vt 0.9318181818181818 1
vt 0.9318181818181818 0.9545454545454546
vt 0.9090909090909091 0.9545454545454546
vt 0.9090909090909091 1
vt 0.4375 0.5397727272727273
vt 0.4375 0.5454545454545454
vt 0.45454545454545453 0.5454545454545454
vt 0.45454545454545453 0.5397727272727273
vt 0.38636363636363635 0.5454545454545454
vt 0.45454545454545453 0.5454545454545454
vt 0.45454545454545453 0.5397727272727273
vt 0.38636363636363635 0.5397727272727273
vt 0.38636363636363635 0.5454545454545454
vt 0.45454545454545453 0.5454545454545454
vt 0.45454545454545453 0.5397727272727273
vt 0.38636363636363635 0.5397727272727273
vn 0.3826834323650897 0 -0.9238795325112867
vn -0.3826834323650897 0 0.9238795325112867
vn -0.9238795325112867 0 -0.3826834323650897
vn 0 1 0
vn 0 -1 0
usemtl m_825b82f6-8ed2-501b-9a50-e5846395849e
f 12/28/7 15/27/7 13/26/7 10/25/7
f 16/32/8 11/31/8 9/30/8 14/29/8
f 15/36/9 16/35/9 14/34/9 13/33/9
f 14/40/10 9/39/10 10/38/10 13/37/10
f 15/44/11 12/43/11 11/42/11 16/41/11
o connector2
v 1.28125 1.6875 -1.34375
v 1.28125 1.6875 -1.40625
v 1.28125 1.4375 -1.34375
v 1.28125 1.4375 -1.40625
v -0.28125 1.6875 -1.40625
v -0.28125 1.6875 -1.34375
v -0.28125 1.4375 -1.40625
v -0.28125 1.4375 -1.34375
vt 0.9090909090909091 0.7954545454545454
vt 0.9090909090909091 0.9545454545454546
vt 0.9318181818181818 0.9545454545454546
vt 0.9318181818181818 0.7954545454545454
vt 0.9090909090909091 0.7954545454545454
vt 0.9090909090909091 0.9545454545454546
vt 0.9318181818181818 0.9545454545454546
vt 0.9318181818181818 0.7954545454545454
vt 0.3522727272727273 0.5454545454545454
vt 0.44886363636363635 0.5454545454545454
vt 0.44886363636363635 0.5397727272727273
vt 0.3522727272727273 0.5397727272727273
vt 0.3522727272727273 0.5454545454545454
vt 0.44886363636363635 0.5454545454545454
vt 0.44886363636363635 0.5397727272727273
vt 0.3522727272727273 0.5397727272727273
vn 0 0 -1
vn 0 0 1
vn 0 1 0
vn 0 -1 0
usemtl m_825b82f6-8ed2-501b-9a50-e5846395849e
f 20/48/12 23/47/12 21/46/12 18/45/12
f 24/52/13 19/51/13 17/50/13 22/49/13
f 22/56/14 17/55/14 18/54/14 21/53/14
f 23/60/15 20/59/15 19/58/15 24/57/15
o connector3
v 1.91641717860151 1.6875 -1.606844859751
v 1.89249946407869 1.6875 -1.66458733053295
v 1.91641717860151 1.4375 -1.606844859751
v 1.89249946407869 1.4375 -1.66458733053295
v 1.257332285477182 1.6875 -1.40149247078196
v 1.28125 1.6875 -1.34375
v 1.257332285477182 1.4375 -1.40149247078196
v 1.28125 1.4375 -1.34375
vt 0.9318181818181818 0.7954545454545454
vt 0.9318181818181818 0.75
vt 0.9090909090909091 0.75
vt 0.9090909090909091 0.7954545454545454
vt 0.4375 0.5397727272727273
vt 0.4375 0.5454545454545454
vt 0.45454545454545453 0.5454545454545454
vt 0.45454545454545453 0.5397727272727273
vt 0.9318181818181818 0.7954545454545454
vt 0.9318181818181818 0.75
vt 0.9090909090909091 0.75
vt 0.9090909090909091 0.7954545454545454
vt 0.38636363636363635 0.5454545454545454
vt 0.45454545454545453 0.5454545454545454
vt 0.45454545454545453 0.5397727272727273
vt 0.38636363636363635 0.5397727272727273
vt 0.38636363636363635 0.5454545454545454
vt 0.45454545454545453 0.5454545454545454
vt 0.45454545454545453 0.5397727272727273
vt 0.38636363636363635 0.5397727272727273
vn -0.3826834323650897 0 -0.9238795325112867
vn 0.9238795325112867 0 -0.3826834323650897
vn 0.3826834323650897 0 0.9238795325112867
vn 0 1 0
vn 0 -1 0
usemtl m_825b82f6-8ed2-501b-9a50-e5846395849e
f 28/64/16 31/63/16 29/62/16 26/61/16
f 27/68/17 28/67/17 26/66/17 25/65/17
f 32/72/18 27/71/18 25/70/18 30/69/18
f 30/76/19 25/75/19 26/74/19 29/73/19
f 31/80/20 28/79/20 27/78/20 32/77/20
o cube
v -0.284524603938972 2 -1.4826830951676
v -0.236689174893336 2 -1.59816803673151
v -0.284524603938972 1.25 -1.4826830951676
v -0.236689174893336 1.25 -1.59816803673151
v -0.9295988242768 2 -1.88518061100533
v -0.97743425332244 2 -1.76969566944142
v -0.9295988242768 1.25 -1.88518061100533
v -0.97743425332244 1.25 -1.76969566944142
vt 0.6477272727272727 0.3522727272727273
vt 0.7159090909090909 0.3522727272727273
vt 0.7159090909090909 0.28409090909090906
vt 0.6477272727272727 0.28409090909090906
vt 0.5340909090909091 0.5340909090909092
vt 0.5454545454545454 0.5340909090909092
vt 0.5454545454545454 0.46590909090909094
vt 0.5340909090909091 0.46590909090909094
vt 0.5568181818181818 0.5340909090909092
vt 0.625 0.5340909090909092
vt 0.625 0.46590909090909094
vt 0.5568181818181818 0.46590909090909094
vt 0.45454545454545453 0.5340909090909092
vt 0.4659090909090909 0.5340909090909092
vt 0.4659090909090909 0.46590909090909094
vt 0.45454545454545453 0.46590909090909094
vt 0.4659090909090909 0.5454545454545454
vt 0.5340909090909091 0.5454545454545454
vt 0.5340909090909091 0.5340909090909092
vt 0.4659090909090909 0.5340909090909092
vt 0.4659090909090909 0.46590909090909094
vt 0.5340909090909091 0.46590909090909094
vt 0.5340909090909091 0.4545454545454546
vt 0.4659090909090909 0.4545454545454546
vn 0.3826834323650897 0 -0.9238795325112867
vn 0.9238795325112867 0 0.3826834323650897
vn -0.3826834323650897 0 0.9238795325112867
vn -0.9238795325112867 0 -0.3826834323650897
vn 0 1 0
vn 0 -1 0
usemtl m_825b82f6-8ed2-501b-9a50-e5846395849e
f 36/84/21 39/83/21 37/82/21 34/81/21
f 35/88/22 36/87/22 34/86/22 33/85/22
f 40/92/23 35/91/23 33/90/23 38/89/23
f 39/96/24 40/95/24 38/94/24 37/93/24
f 38/100/25 33/99/25 34/98/25 37/97/25
f 39/104/26 36/103/26 35/102/26 40/101/26
o cube
v 2 0.5 -1
v 2 0.5 -2
v 2 0 -1
v 2 0 -2
v -1 0.5 -2
v -1 0.5 -1
v -1 0 -2
v -1 0 -1
vt 0.09090909090909091 0.5
vt 0.36363636363636365 0.5
vt 0.36363636363636365 0.4545454545454546
vt 0.09090909090909091 0.4545454545454546
vt 0.5511363636363636 1
vt 0.8238636363636364 1
vt 0.8238636363636364 0.9090909090909091
vt 0.5511363636363636 0.9090909090909091
vt 0.09090909090909091 0.6363636363636364
vt 0.36363636363636365 0.6363636363636364
vt 0.36363636363636365 0.5454545454545454
vt 0.09090909090909091 0.5454545454545454
vn 0 0 -1
vn 0 1 0
vn 0 -1 0
usemtl m_825b82f6-8ed2-501b-9a50-e5846395849e
f 44/108/27 47/107/27 45/106/27 42/105/27
f 46/112/28 41/111/28 42/110/28 45/109/28
f 47/116/29 44/115/29 43/114/29 48/113/29
o cube
v 0 0.5 3
v 0 0.5 2
v 0 0 3
v 0 0 2
v -1 0.5 2
v -1 0.5 3
v -1 0 2
v -1 0 3
vt 0.09090909090909091 0.5
vt 0.18181818181818182 0.5
vt 0.18181818181818182 0.4545454545454546
vt 0.09090909090909091 0.4545454545454546
vt 0.5397727272727273 0.6363636363636364
vt 0.6306818181818182 0.6363636363636364
vt 0.6306818181818182 0.5454545454545454
vt 0.5397727272727273 0.5454545454545454
vt 0.2784090909090909 1
vt 0.3693181818181818 1
vt 0.3693181818181818 0.9090909090909091
vt 0.2784090909090909 0.9090909090909091
vn 0 0 1
vn 0 1 0
vn 0 -1 0
usemtl m_825b82f6-8ed2-501b-9a50-e5846395849e
f 56/120/30 51/119/30 49/118/30 54/117/30
f 54/124/31 49/123/31 50/122/31 53/121/31
f 55/128/32 52/127/32 51/126/32 56/125/32
o cube
v -1 0.5 2
v -1 0.5 -1
v -1 0 2
v -1 0 -1
v -2 0.5 -1
v -2 0.5 2
v -2 0 -1
v -2 0 2
vt 0.09090909090909091 0.5
vt 0.36363636363636365 0.5
vt 0.36363636363636365 0.4545454545454546
vt 0.09090909090909091 0.4545454545454546
vt 0.45454545454545453 0.9090909090909091
vt 0.5454545454545454 0.9090909090909091
vt 0.5454545454545454 0.6363636363636364
vt 0.45454545454545453 0.6363636363636364
vt 0 0.9090909090909091
vt 0.09090909090909091 0.9090909090909091
vt 0.09090909090909091 0.6363636363636364
vt 0 0.6363636363636364
vn -1 0 0
vn 0 1 0
vn 0 -1 0
usemtl m_825b82f6-8ed2-501b-9a50-e5846395849e
f 63/132/33 64/131/33 62/130/33 61/129/33
f 62/136/34 57/135/34 58/134/34 61/133/34
f 63/140/35 60/139/35 59/138/35 64/137/35
o cube
v 3 0.5 2
v 3 0.5 -1
v 3 0 2
v 3 0 -1
v 2 0.5 -1
v 2 0.5 2
v 2 0 -1
v 2 0 2
vt 0.09090909090909091 0.5
vt 0.36363636363636365 0.5
vt 0.36363636363636365 0.4545454545454546
vt 0.09090909090909091 0.4545454545454546
vt 0.8181818181818182 0.9090909090909091
vt 0.9090909090909091 0.9090909090909091
vt 0.9090909090909091 0.6363636363636364
vt 0.8181818181818182 0.6363636363636364
vt 0.36363636363636365 0.9090909090909091
vt 0.45454545454545453 0.9090909090909091
vt 0.45454545454545453 0.6363636363636364
vt 0.36363636363636365 0.6363636363636364
vn 1 0 0
vn 0 1 0
vn 0 -1 0
usemtl m_825b82f6-8ed2-501b-9a50-e5846395849e
f 67/144/36 68/143/36 66/142/36 65/141/36
f 70/148/37 65/147/37 66/146/37 69/145/37
f 71/152/38 68/151/38 67/150/38 72/149/38
o cube
v 2 0.5 3
v 2 0.5 2
v 2 0 3
v 2 0 2
v 1 0.5 2
v 1 0.5 3
v 1 0 2
v 1 0 3
vt 0.2727272727272727 0.5
vt 0.36363636363636365 0.5
vt 0.36363636363636365 0.4545454545454546
vt 0.2727272727272727 0.4545454545454546
vt 0.7272727272727273 0.6363636363636364
vt 0.8181818181818182 0.6363636363636364
vt 0.8181818181818182 0.5454545454545454
vt 0.7272727272727273 0.5454545454545454
vt 0.09090909090909091 1
vt 0.18181818181818182 1
vt 0.18181818181818182 0.9090909090909091
vt 0.09090909090909091 0.9090909090909091
vn 0 0 1
vn 0 1 0
vn 0 -1 0
usemtl m_825b82f6-8ed2-501b-9a50-e5846395849e
f 80/156/39 75/155/39 73/154/39 78/153/39
f 78/160/40 73/159/40 74/158/40 77/157/40
f 79/164/41 76/163/41 75/162/41 80/161/41
o cube
v 3 1 -1
v 3 1 -2
v 3 0 -1
v 3 0 -2
v 2 1 -2
v 2 1 -1
v 2 0 -2
v 2 0 -1
vt 0 0.4545454545454546
vt 0.09090909090909091 0.4545454545454546
vt 0.09090909090909091 0.36363636363636365
vt 0 0.36363636363636365
vt 0.36363636363636365 0.4545454545454546
vt 0.45454545454545453 0.4545454545454546
vt 0.45454545454545453 0.36363636363636365
vt 0.36363636363636365 0.36363636363636365
vt 0.09659090909090909 0.5454545454545454
vt 0.1875 0.5454545454545454
vt 0.1875 0.4545454545454546
vt 0.09659090909090909 0.4545454545454546
vt 0.2727272727272727 0.5454545454545454
vt 0.36363636363636365 0.5454545454545454
vt 0.36363636363636365 0.4545454545454546
vt 0.2727272727272727 0.4545454545454546
vt 0 0.36363636363636365
vt 0.09090909090909091 0.36363636363636365
vt 0.09090909090909091 0.2727272727272727
vt 0 0.2727272727272727
vt 0.36363636363636365 0.6363636363636364
vt 0.45454545454545453 0.6363636363636364
vt 0.45454545454545453 0.5454545454545454
vt 0.36363636363636365 0.5454545454545454
vn 0 0 -1
vn 1 0 0
vn 0 0 1
vn -1 0 0
vn 0 1 0
vn 0 -1 0
usemtl m_825b82f6-8ed2-501b-9a50-e5846395849e
f 84/168/42 87/167/42 85/166/42 82/165/42
f 83/172/43 84/171/43 82/170/43 81/169/43
f 88/176/44 83/175/44 81/174/44 86/173/44
f 87/180/45 88/179/45 86/178/45 85/177/45
f 86/184/46 81/183/46 82/182/46 85/181/46
f 87/188/47 84/187/47 83/186/47 88/185/47
o cube
v -1 1 -1
v -1 1 -2
v -1 0 -1
v -1 0 -2
v -2 1 -2
v -2 1 -1
v -2 0 -2
v -2 0 -1
vt 0.36363636363636365 0.4545454545454546
vt 0.45454545454545453 0.4545454545454546
vt 0.45454545454545453 0.36363636363636365
vt 0.36363636363636365 0.36363636363636365
vt 0.2727272727272727 0.5454545454545454
vt 0.36363636363636365 0.5454545454545454
vt 0.36363636363636365 0.4545454545454546
vt 0.2727272727272727 0.4545454545454546
vt 0.2727272727272727 0.5454545454545454
vt 0.36363636363636365 0.5454545454545454
vt 0.36363636363636365 0.4545454545454546
vt 0.2727272727272727 0.4545454545454546
vt 0 0.4545454545454546
vt 0.09090909090909091 0.4545454545454546
vt 0.09090909090909091 0.36363636363636365
vt 0 0.36363636363636365
vt 0 0.36363636363636365
vt 0.09090909090909091 0.36363636363636365
vt 0.09090909090909091 0.2727272727272727
vt 0 0.2727272727272727
vt 0 0.6363636363636364
vt 0.09090909090909091 0.6363636363636364
vt 0.09090909090909091 0.5454545454545454
vt 0 0.5454545454545454
vn 0 0 -1
vn 1 0 0
vn 0 0 1
vn -1 0 0
vn 0 1 0
vn 0 -1 0
usemtl m_825b82f6-8ed2-501b-9a50-e5846395849e
f 92/192/48 95/191/48 93/190/48 90/189/48
f 91/196/49 92/195/49 90/194/49 89/193/49
f 96/200/50 91/199/50 89/198/50 94/197/50
f 95/204/51 96/203/51 94/202/51 93/201/51
f 94/208/52 89/207/52 90/206/52 93/205/52
f 95/212/53 92/211/53 91/210/53 96/209/53
o cube
v -1 1 3
v -1 1 2
v -1 0 3
v -1 0 2
v -2 1 2
v -2 1 3
v -2 0 2
v -2 0 3
vt 0.2727272727272727 0.5454545454545454
vt 0.36363636363636365 0.5454545454545454
vt 0.36363636363636365 0.4545454545454546
vt 0.2727272727272727 0.4545454545454546
vt 0.2727272727272727 0.5454545454545454
vt 0.36363636363636365 0.5454545454545454
vt 0.36363636363636365 0.4545454545454546
vt 0.2727272727272727 0.4545454545454546
vt 0 0.4545454545454546
vt 0.09090909090909091 0.4545454545454546
vt 0.09090909090909091 0.36363636363636365
vt 0 0.36363636363636365
vt 0.36363636363636365 0.4545454545454546
vt 0.45454545454545453 0.4545454545454546
vt 0.45454545454545453 0.36363636363636365
vt 0.36363636363636365 0.36363636363636365
vt 0 0.36363636363636365
vt 0.09090909090909091 0.36363636363636365
vt 0.09090909090909091 0.2727272727272727
vt 0 0.2727272727272727
vt 0 1
vt 0.09090909090909091 1
vt 0.09090909090909091 0.9090909090909091
vt 0 0.9090909090909091
vn 0 0 -1
vn 1 0 0
vn 0 0 1
vn -1 0 0
vn 0 1 0
vn 0 -1 0
usemtl m_825b82f6-8ed2-501b-9a50-e5846395849e
f 100/216/54 103/215/54 101/214/54 98/213/54
f 99/220/55 100/219/55 98/218/55 97/217/55
f 104/224/56 99/223/56 97/222/56 102/221/56
f 103/228/57 104/227/57 102/226/57 101/225/57
f 102/232/58 97/231/58 98/230/58 101/229/58
f 103/236/59 100/235/59 99/234/59 104/233/59
o cube
v 3 1 3
v 3 1 2
v 3 0 3
v 3 0 2
v 2 1 2
v 2 1 3
v 2 0 2
v 2 0 3
vt 0.2727272727272727 0.5454545454545454
vt 0.36363636363636365 0.5454545454545454
vt 0.36363636363636365 0.4545454545454546
vt 0.2727272727272727 0.4545454545454546
vt 0 0.4545454545454546
vt 0.09090909090909091 0.4545454545454546
vt 0.09090909090909091 0.36363636363636365
vt 0 0.36363636363636365
vt 0.36363636363636365 0.4545454545454546
vt 0.45454545454545453 0.4545454545454546
vt 0.45454545454545453 0.36363636363636365
vt 0.36363636363636365 0.36363636363636365
vt 0.2727272727272727 0.5454545454545454
vt 0.36363636363636365 0.5454545454545454
vt 0.36363636363636365 0.4545454545454546
vt 0.2727272727272727 0.4545454545454546
vt 0 0.36363636363636365
vt 0.09090909090909091 0.36363636363636365
vt 0.09090909090909091 0.2727272727272727
vt 0 0.2727272727272727
vt 0.36363636363636365 1
vt 0.45454545454545453 1
vt 0.45454545454545453 0.9090909090909091
vt 0.36363636363636365 0.9090909090909091
vn 0 0 -1
vn 1 0 0
vn 0 0 1
vn -1 0 0
vn 0 1 0
vn 0 -1 0
usemtl m_825b82f6-8ed2-501b-9a50-e5846395849e
f 108/240/60 111/239/60 109/238/60 106/237/60
f 107/244/61 108/243/61 106/242/61 105/241/61
f 112/248/62 107/247/62 105/246/62 110/245/62
f 111/252/63 112/251/63 110/250/63 109/249/63
f 110/256/64 105/255/64 106/254/64 109/253/64
f 111/260/65 108/259/65 107/258/65 112/257/65
o cube
v 0.1875 1 2.8125
v 0.1875 1 2.1875
v 0.1875 0.9375 2.8125
v 0.1875 0.9375 2.1875
v 0.1875 1 2.1875
v 0.1875 1 2.8125
v 0.1875 0.9375 2.1875
v 0.1875 0.9375 2.8125
vt 0.75 1
vt 0.75 1
vt 0.75 0.9375
vt 0.75 0.9375
vt 0.9318181818181818 0.5284090909090908
vt 0.9886363636363636 0.5284090909090908
vt 0.9886363636363636 0.5340909090909092
vt 0.9318181818181818 0.5340909090909092
vt 0 1
vt 0 1
vt 0 0.9375
vt 0 0.9375
vt 0 0.9375
vt 0 0.9375
vt 0 0.3125
vt 0 0.3125
vt 0 0.9375
vt 0 0.9375
vt 0 0.3125
vt 0 0.3125
vn 0 0 -1
vn 1 0 0
vn 0 0 1
vn 0 1 0
vn 0 -1 0
usemtl none
f 116/264/66 119/263/66 117/262/66 114/261/66
usemtl m_825b82f6-8ed2-501b-9a50-e5846395849e
f 115/268/67 116/267/67 114/266/67 113/265/67
usemtl none
f 120/272/68 115/271/68 113/270/68 118/269/68
f 118/276/69 113/275/69 114/274/69 117/273/69
f 119/280/70 116/279/70 115/278/70 120/277/70
o cube
v 0.8125 1 2.8125
v 0.8125 1 2.1875
v 0.8125 0.9375 2.8125
v 0.8125 0.9375 2.1875
v 0.8125 1 2.1875
v 0.8125 1 2.8125
v 0.8125 0.9375 2.1875
v 0.8125 0.9375 2.8125
vt 0.75 1
vt 0.75 1
vt 0.75 0.9375
vt 0.75 0.9375
vt 0 1
vt 0 1
vt 0 0.9375
vt 0 0.9375
vt 0.9318181818181818 0.5284090909090908
vt 0.9886363636363636 0.5284090909090908
vt 0.9886363636363636 0.5340909090909092
vt 0.9318181818181818 0.5340909090909092
vt 0 0.9375
vt 0 0.9375
vt 0 0.3125
vt 0 0.3125
vt 0 0.9375
vt 0 0.9375
vt 0 0.3125
vt 0 0.3125
vn 0 0 -1
vn 0 0 1
vn -1 0 0
vn 0 1 0
vn 0 -1 0
usemtl none
f 124/284/71 127/283/71 125/282/71 122/281/71
f 128/288/72 123/287/72 121/286/72 126/285/72
usemtl m_825b82f6-8ed2-501b-9a50-e5846395849e
f 127/292/73 128/291/73 126/290/73 125/289/73
usemtl none
f 126/296/74 121/295/74 122/294/74 125/293/74
f 127/300/75 124/299/75 123/298/75 128/297/75
o cube
v 0.8125 1 2.1875
v 0.8125 1 2.1875
v 0.8125 0.9375 2.1875
v 0.8125 0.9375 2.1875
v 0.1875 1 2.1875
v 0.1875 1 2.1875
v 0.1875 0.9375 2.1875
v 0.1875 0.9375 2.1875
vt 0.9261363636363636 0.5284090909090908
vt 0.9829545454545454 0.5284090909090908
vt 0.9829545454545454 0.5340909090909092
vt 0.9261363636363636 0.5340909090909092
vn 0 0 1
usemtl m_825b82f6-8ed2-501b-9a50-e5846395849e
f 136/304/76 131/303/76 129/302/76 134/301/76
o cube
v 0.8125 1 2.8125
v 0.8125 1 2.8125
v 0.8125 0.9375 2.8125
v 0.8125 0.9375 2.8125
v 0.1875 1 2.8125
v 0.1875 1 2.8125
v 0.1875 0.9375 2.8125
v 0.1875 0.9375 2.8125
vt 0.9261363636363636 0.5284090909090908
vt 0.9829545454545454 0.5284090909090908
vt 0.9829545454545454 0.5340909090909092
vt 0.9261363636363636 0.5340909090909092
vt 0.75 1
vt 0.75 1
vt 0.75 0.9375
vt 0.75 0.9375
vt 0 1
vt 0 1
vt 0 0.9375
vt 0 0.9375
vt 0 1
vt 0.625 1
vt 0.625 1
vt 0 1
vt 0 0.25
vt 0.625 0.25
vt 0.625 0.25
vt 0 0.25
vn 0 0 -1
vn 1 0 0
vn -1 0 0
vn 0 1 0
vn 0 -1 0
usemtl m_825b82f6-8ed2-501b-9a50-e5846395849e
f 140/308/77 143/307/77 141/306/77 138/305/77
usemtl none
f 139/312/78 140/311/78 138/310/78 137/309/78
f 143/316/79 144/315/79 142/314/79 141/313/79
f 142/320/80 137/319/80 138/318/80 141/317/80
f 143/324/81 140/323/81 139/322/81 144/321/81
o cube
v 1 1 3
v 1 1 2
v 1 0 3
v 1 0 2
v 0 1 2
v 0 1 3
v 0 0 2
v 0 0 3
vt 0.09090909090909091 0.5454545454545454
vt 0.18181818181818182 0.5454545454545454
vt 0.18181818181818182 0.4545454545454546
vt 0.09090909090909091 0.4545454545454546
vt 0.18181818181818182 0.5454545454545454
vt 0.2727272727272727 0.5454545454545454
vt 0.2727272727272727 0.4545454545454546
vt 0.18181818181818182 0.4545454545454546
vt 0.2727272727272727 0.5454545454545454
vt 0.36363636363636365 0.5454545454545454
vt 0.36363636363636365 0.4545454545454546
vt 0.2727272727272727 0.4545454545454546
vt 0.9090909090909091 0.5454545454545454
vt 1 0.5454545454545454
vt 1 0.4545454545454546
vt 0.9090909090909091 0.4545454545454546
vt 0.18181818181818182 1
vt 0.2727272727272727 1
vt 0.2727272727272727 0.9090909090909091
vt 0.18181818181818182 0.9090909090909091
vn 1 0 0
vn 0 0 1
vn -1 0 0
vn 0 1 0
vn 0 -1 0
usemtl m_825b82f6-8ed2-501b-9a50-e5846395849e
f 147/328/82 148/327/82 146/326/82 145/325/82
f 152/332/83 147/331/83 145/330/83 150/329/83
f 151/336/84 152/335/84 150/334/84 149/333/84
f 150/340/85 145/339/85 146/338/85 149/337/85
f 151/344/86 148/343/86 147/342/86 152/341/86
o cube
v 0.375 1.875 -1.4375
v 0.375 1.875 -1.5
v 0.375 1.375 -1.4375
v 0.375 1.375 -1.5
v -0.125 1.875 -1.5
v -0.125 1.875 -1.4375
v -0.125 1.375 -1.5
v -0.125 1.375 -1.4375
vt 1 1
vt 0.9943181818181818 1
vt 0.9943181818181818 0.9545454545454546
vt 1 0.9545454545454546
vt 0.5681818181818182 0.5227272727272727
vt 0.6136363636363636 0.5227272727272727
vt 0.6136363636363636 0.4772727272727273
vt 0.5681818181818182 0.4772727272727273
vt 1 1
vt 0.9943181818181818 1
vt 0.9943181818181818 0.9545454545454546
vt 1 0.9545454545454546
vt 1 0.9545454545454546
vt 1 1
vt 0.9943181818181818 1
vt 0.9943181818181818 0.9545454545454546
vt 1 0.9545454545454546
vt 1 1
vt 0.9943181818181818 1
vt 0.9943181818181818 0.9545454545454546
vn 1 0 0
vn 0 0 1
vn -1 0 0
vn 0 1 0
vn 0 -1 0
usemtl m_825b82f6-8ed2-501b-9a50-e5846395849e
f 155/348/87 156/347/87 154/346/87 153/345/87
f 160/352/88 155/351/88 153/350/88 158/349/88
f 159/356/89 160/355/89 158/354/89 157/353/89
f 158/360/90 153/359/90 154/358/90 157/357/90
f 159/364/91 156/363/91 155/362/91 160/361/91
o cube
v 0.5 2 -1.5
v 0.5 2 -1.625
v 0.5 1.25 -1.5
v 0.5 1.25 -1.625
v -0.25 2 -1.625
v -0.25 2 -1.5
v -0.25 1.25 -1.625
v -0.25 1.25 -1.5
vt 0.8295454545454546 0.3522727272727273
vt 0.8977272727272727 0.3522727272727273
vt 0.8977272727272727 0.28409090909090906
vt 0.8295454545454546 0.28409090909090906
vt 0.5568181818181818 0.5340909090909092
vt 0.625 0.5340909090909092
vt 0.625 0.46590909090909094
vt 0.5568181818181818 0.46590909090909094
vt 0.45454545454545453 0.5340909090909092
vt 0.4659090909090909 0.5340909090909092
vt 0.4659090909090909 0.46590909090909094
vt 0.45454545454545453 0.46590909090909094
vt 0.4659090909090909 0.5454545454545454
vt 0.5340909090909091 0.5454545454545454
vt 0.5340909090909091 0.5340909090909092
vt 0.4659090909090909 0.5340909090909092
vt 0.4659090909090909 0.46590909090909094
vt 0.5340909090909091 0.46590909090909094
vt 0.5340909090909091 0.4545454545454546
vt 0.4659090909090909 0.4545454545454546
vn 0 0 -1
vn 0 0 1
vn -1 0 0
vn 0 1 0
vn 0 -1 0
usemtl m_825b82f6-8ed2-501b-9a50-e5846395849e
f 164/368/92 167/367/92 165/366/92 162/365/92
f 168/372/93 163/371/93 161/370/93 166/369/93
f 167/376/94 168/375/94 166/374/94 165/373/94
f 166/380/95 161/379/95 162/378/95 165/377/95
f 167/384/96 164/383/96 163/382/96 168/381/96
o cube
v 1.125 1.875 -1.4375
v 1.125 1.875 -1.5
v 1.125 1.375 -1.4375
v 1.125 1.375 -1.5
v 0.625 1.875 -1.5
v 0.625 1.875 -1.4375
v 0.625 1.375 -1.5
v 0.625 1.375 -1.4375
vt 1 1
vt 0.9943181818181818 1
vt 0.9943181818181818 0.9545454545454546
vt 1 0.9545454545454546
vt 0.5681818181818182 0.5227272727272727
vt 0.6136363636363636 0.5227272727272727
vt 0.6136363636363636 0.4772727272727273
vt 0.5681818181818182 0.4772727272727273
vt 1 1
vt 0.9943181818181818 1
vt 0.9943181818181818 0.9545454545454546
vt 1 0.9545454545454546
vt 1 0.9545454545454546
vt 1 1
vt 0.9943181818181818 1
vt 0.9943181818181818 0.9545454545454546
vt 1 0.9545454545454546
vt 1 1
vt 0.9943181818181818 1
vt 0.9943181818181818 0.9545454545454546
vn 1 0 0
vn 0 0 1
vn -1 0 0
vn 0 1 0
vn 0 -1 0
usemtl m_825b82f6-8ed2-501b-9a50-e5846395849e
f 171/388/97 172/387/97 170/386/97 169/385/97
f 176/392/98 171/391/98 169/390/98 174/389/98
f 175/396/99 176/395/99 174/394/99 173/393/99
f 174/400/100 169/399/100 170/398/100 173/397/100
f 175/404/101 172/403/101 171/402/101 176/401/101
o cube
v 1.25 2 -1.5
v 1.25 2 -1.625
v 1.25 1.25 -1.5
v 1.25 1.25 -1.625
v 0.5 2 -1.625
v 0.5 2 -1.5
v 0.5 1.25 -1.625
v 0.5 1.25 -1.5
vt 0.7386363636363636 0.3522727272727273
vt 0.8068181818181818 0.3522727272727273
vt 0.8068181818181818 0.28409090909090906
vt 0.7386363636363636 0.28409090909090906
vt 0.5340909090909091 0.5340909090909092
vt 0.5454545454545454 0.5340909090909092
vt 0.5454545454545454 0.46590909090909094
vt 0.5340909090909091 0.46590909090909094
vt 0.5568181818181818 0.5340909090909092
vt 0.625 0.5340909090909092
vt 0.625 0.46590909090909094
vt 0.5568181818181818 0.46590909090909094
vt 0.4659090909090909 0.5454545454545454
vt 0.5340909090909091 0.5454545454545454
vt 0.5340909090909091 0.5340909090909092
vt 0.4659090909090909 0.5340909090909092
vt 0.4659090909090909 0.46590909090909094
vt 0.5340909090909091 0.46590909090909094
vt 0.5340909090909091 0.4545454545454546
vt 0.4659090909090909 0.4545454545454546
vn 0 0 -1
vn 1 0 0
vn 0 0 1
vn 0 1 0
vn 0 -1 0
usemtl m_825b82f6-8ed2-501b-9a50-e5846395849e
f 180/408/102 183/407/102 181/406/102 178/405/102
f 179/412/103 180/411/103 178/410/103 177/409/103
f 184/416/104 179/415/104 177/414/104 182/413/104
f 182/420/105 177/419/105 178/418/105 181/417/105
f 183/424/106 180/423/106 179/422/106 184/421/106
o cube
v 1.88586702628134 1.875 -1.66411776961383
v 1.86194931175853 1.875 -1.72186024039578
v 1.88586702628134 1.375 -1.66411776961383
v 1.86194931175853 1.375 -1.72186024039578
v 1.400009545502883 1.875 -1.53051852421324
v 1.423927260025701 1.875 -1.47277605343128
v 1.400009545502883 1.375 -1.53051852421324
v 1.423927260025701 1.375 -1.47277605343128
vt 1 1
vt 0.9943181818181818 1
vt 0.9943181818181818 0.9545454545454546
vt 1 0.9545454545454546
vt 0.5681818181818182 0.5227272727272727
vt 0.6136363636363636 0.5227272727272727
vt 0.6136363636363636 0.4772727272727273
vt 0.5681818181818182 0.4772727272727273
vt 1 1
vt 0.9943181818181818 1
vt 0.9943181818181818 0.9545454545454546
vt 1 0.9545454545454546
vt 1 0.9545454545454546
vt 1 1
vt 0.9943181818181818 1
vt 0.9943181818181818 0.9545454545454546
vt 1 0.9545454545454546
vt 1 1
vt 0.9943181818181818 1
vt 0.9943181818181818 0.9545454545454546
vn 0.9238795325112867 0 -0.3826834323650897
vn 0.3826834323650897 0 0.9238795325112867
vn -0.9238795325112867 0 0.3826834323650897
vn 0 1 0
vn 0 -1 0
usemtl m_825b82f6-8ed2-501b-9a50-e5846395849e
f 187/428/107 188/427/107 186/426/107 185/425/107
f 192/432/108 187/431/108 185/430/108 190/429/108
f 191/436/109 192/435/109 190/434/109 189/433/109
f 190/440/110 185/439/110 186/438/110 189/437/110
f 191/444/111 188/443/111 187/442/111 192/441/111
o cube
v 1.97743425332244 2 -1.76969566944142
v 1.9295988242768 2 -1.88518061100533
v 1.97743425332244 1.25 -1.76969566944142
v 1.9295988242768 1.25 -1.88518061100533
v 1.236689174893336 2 -1.59816803673151
v 1.284524603938972 2 -1.4826830951676
v 1.236689174893336 1.25 -1.59816803673151
v 1.284524603938972 1.25 -1.4826830951676
vt 0.6477272727272727 0.3522727272727273
vt 0.7159090909090909 0.3522727272727273
vt 0.7159090909090909 0.28409090909090906
vt 0.6477272727272727 0.28409090909090906
vt 0.5340909090909091 0.5340909090909092
vt 0.5454545454545454 0.5340909090909092
vt 0.5454545454545454 0.46590909090909094
vt 0.5340909090909091 0.46590909090909094
vt 0.5568181818181818 0.5340909090909092
vt 0.625 0.5340909090909092
vt 0.625 0.46590909090909094
vt 0.5568181818181818 0.46590909090909094
vt 0.45454545454545453 0.5340909090909092
vt 0.4659090909090909 0.5340909090909092
vt 0.4659090909090909 0.46590909090909094
vt 0.45454545454545453 0.46590909090909094
vt 0.4659090909090909 0.5454545454545454
vt 0.5340909090909091 0.5454545454545454
vt 0.5340909090909091 0.5340909090909092
vt 0.4659090909090909 0.5340909090909092
vt 0.4659090909090909 0.46590909090909094
vt 0.5340909090909091 0.46590909090909094
vt 0.5340909090909091 0.4545454545454546
vt 0.4659090909090909 0.4545454545454546
vn -0.3826834323650897 0 -0.9238795325112867
vn 0.9238795325112867 0 -0.3826834323650897
vn 0.3826834323650897 0 0.9238795325112867
vn -0.9238795325112867 0 0.3826834323650897
vn 0 1 0
vn 0 -1 0
usemtl m_825b82f6-8ed2-501b-9a50-e5846395849e
f 196/448/112 199/447/112 197/446/112 194/445/112
f 195/452/113 196/451/113 194/450/113 193/449/113
f 200/456/114 195/455/114 193/454/114 198/453/114
f 199/460/115 200/459/115 198/458/115 197/457/115
f 198/464/116 193/463/116 194/462/116 197/461/116
f 199/468/117 196/467/117 195/466/117 200/465/117
o cube
v 0.8125 0.9375 2.8125
v 0.8125 0.9375 2.1875
v 0.8125 0.9375 2.8125
v 0.8125 0.9375 2.1875
v 0.1875 0.9375 2.1875
v 0.1875 0.9375 2.8125
v 0.1875 0.9375 2.1875
v 0.1875 0.9375 2.8125
vt 0.6534090909090909 0.34659090909090906
vt 0.7102272727272727 0.34659090909090906
vt 0.7102272727272727 0.2897727272727273
vt 0.6534090909090909 0.2897727272727273
vn 0 1 0
usemtl m_825b82f6-8ed2-501b-9a50-e5846395849e
f 206/472/118 201/471/118 202/470/118 205/469/118
o cube
v 1.000625 1.0006249999999999 3.000625
v 1.000625 1.0006249999999999 2.999375
v 1.000625 -0.00062499999999998668 3.000625
v 1.000625 -0.00062499999999998668 2.999375
v -0.000625 1.0006249999999999 2.999375
v -0.000625 1.0006249999999999 3.000625
v -0.000625 -0.00062499999999998668 2.999375
v -0.000625 -0.00062499999999998668 3.000625
vt 0.9090909090909091 0.6363636363636364
vt 1 0.6363636363636364
vt 1 0.5454545454545454
vt 0.9090909090909091 0.5454545454545454
vn 0 0 1
usemtl m_825b82f6-8ed2-501b-9a50-e5846395849e
f 216/476/119 211/475/119 209/474/119 214/473/119
o cube
v -0.423927260025701 1.875 -1.47277605343128
v -0.400009545502883 1.875 -1.53051852421324
v -0.423927260025701 1.375 -1.47277605343128
v -0.400009545502883 1.375 -1.53051852421324
v -0.86194931175853 1.875 -1.72186024039578
v -0.88586702628134 1.875 -1.66411776961383
v -0.86194931175853 1.375 -1.72186024039578
v -0.88586702628134 1.375 -1.66411776961383
vt 1 1
vt 0.9943181818181818 1
vt 0.9943181818181818 0.9545454545454546
vt 1 0.9545454545454546
vt 0.5681818181818182 0.5227272727272727
vt 0.6136363636363636 0.5227272727272727
vt 0.6136363636363636 0.4772727272727273
vt 0.5681818181818182 0.4772727272727273
vt 1 1
vt 0.9943181818181818 1
vt 0.9943181818181818 0.9545454545454546
vt 1 0.9545454545454546
vt 1 0.9545454545454546
vt 1 1
vt 0.9943181818181818 1
vt 0.9943181818181818 0.9545454545454546
vt 1 0.9545454545454546
vt 1 1
vt 0.9943181818181818 1
vt 0.9943181818181818 0.9545454545454546
vn 0.9238795325112867 0 0.3826834323650897
vn -0.3826834323650897 0 0.9238795325112867
vn -0.9238795325112867 0 -0.3826834323650897
vn 0 1 0
vn 0 -1 0
usemtl m_825b82f6-8ed2-501b-9a50-e5846395849e
f 219/480/120 220/479/120 218/478/120 217/477/120
f 224/484/121 219/483/121 217/482/121 222/481/121
f 223/488/122 224/487/122 222/486/122 221/485/122
f 222/492/123 217/491/123 218/490/123 221/489/123
f 223/496/124 220/495/124 219/494/124 224/493/124
o core_top
v -1.5 3.125 2.6875
v -1.5 3.125 2.3125
v -1.5 2.875 2.6875
v -1.5 2.875 2.3125
v -1.75 3.125 2.3125
v -1.75 3.125 2.6875
v -1.75 2.875 2.3125
v -1.75 2.875 2.6875
vt 0.25 1
vt 0.375 1
vt 0.375 0.875
vt 0.25 0.875
vt 0.25 1
vt 0.375 1
vt 0.375 0.875
vt 0.25 0.875
vt 0.375 1
vt 0.25 1
vt 0.25 0.875
vt 0.375 0.875
vt 0.625 1
vt 0.75 1
vt 0.75 0.875
vt 0.625 0.875
vt 0.625 0.875
vt 0.75 0.875
vt 0.75 0.75
vt 0.625 0.75
vt 0 1
vt 0 1
vt 0 1
vt 0 1
vn 0 0 -1
vn 1 0 0
vn 0 0 1
vn -1 0 0
vn 0 1 0
vn 0 -1 0
usemtl m_d7c9d6c4-bd71-9113-d448-167525cdab35
f 228/500/125 231/499/125 229/498/125 226/497/125
f 227/504/126 228/503/126 226/502/126 225/501/126
f 232/508/127 227/507/127 225/506/127 230/505/127
f 231/512/128 232/511/128 230/510/128 229/509/128
f 230/516/129 225/515/129 226/514/129 229/513/129
f 231/520/130 228/519/130 227/518/130 232/517/130
o core_bottom
v -1.25 2.3125 2.6875
v -1.25 2.3125 2.3125
v -1.25 2.0625 2.6875
v -1.25 2.0625 2.3125
v -1.5 2.3125 2.3125
v -1.5 2.3125 2.6875
v -1.5 2.0625 2.3125
v -1.5 2.0625 2.6875
vt 0.25 0.875
vt 0.375 0.875
vt 0.375 0.75
vt 0.25 0.75
vt 0.625 0.75
vt 0.75 0.75
vt 0.75 0.625
vt 0.625 0.625
vt 0.375 0.875
vt 0.25 0.875
vt 0.25 0.75
vt 0.375 0.75
vt 0 0.6875
vt 0.125 0.6875
vt 0.125 0.5625
vt 0 0.5625
vt 0 1
vt 0 1
vt 0 1
vt 0 1
vt 0 0.6875
vt 0.125 0.6875
vt 0.125 0.5625
vt 0 0.5625
vn 0 0 -1
vn 1 0 0
vn 0 0 1
vn -1 0 0
vn 0 1 0
vn 0 -1 0
usemtl m_d7c9d6c4-bd71-9113-d448-167525cdab35
f 236/524/131 239/523/131 237/522/131 234/521/131
f 235/528/132 236/527/132 234/526/132 233/525/132
f 240/532/133 235/531/133 233/530/133 238/529/133
f 239/536/134 240/535/134 238/534/134 237/533/134
f 238/540/135 233/539/135 234/538/135 237/537/135
f 239/544/136 236/543/136 235/542/136 240/541/136
o core_base
v -1.25 2.875 2.6875
v -1.25 2.875 2.3125
v -1.25 2.3125 2.6875
v -1.25 2.3125 2.3125
v -1.75 2.875 2.3125
v -1.75 2.875 2.6875
v -1.75 2.3125 2.3125
v -1.75 2.3125 2.6875
vt 0 1
vt 0.25 1
vt 0.25 0.6875
vt 0 0.6875
vt 0.375 1
vt 0.5 1
vt 0.5 0.6875
vt 0.375 0.6875
vt 0.25 1
vt 0 1
vt 0 0.6875
vt 0.25 0.6875
vt 0.5 1
vt 0.625 1
vt 0.625 0.6875
vt 0.5 0.6875
vt 0.375 0.6875
vt 0.625 0.6875
vt 0.625 0.5625
vt 0.375 0.5625
vt 0 0.6875
vt 0.25 0.6875
vt 0.25 0.5625
vt 0 0.5625
vn 0 0 -1
vn 1 0 0
vn 0 0 1
vn -1 0 0
vn 0 1 0
vn 0 -1 0
usemtl m_d7c9d6c4-bd71-9113-d448-167525cdab35
f 244/548/137 247/547/137 245/546/137 242/545/137
f 243/552/138 244/551/138 242/550/138 241/549/138
f 248/556/139 243/555/139 241/554/139 246/553/139
f 247/560/140 248/559/140 246/558/140 245/557/140
f 246/564/141 241/563/141 242/562/141 245/561/141
f 247/568/142 244/567/142 243/566/142 248/565/142
o core_base
v 2.75 2.875 2.6875
v 2.75 2.875 2.3125
v 2.75 2.3125 2.6875
v 2.75 2.3125 2.3125
v 2.25 2.875 2.3125
v 2.25 2.875 2.6875
v 2.25 2.3125 2.3125
v 2.25 2.3125 2.6875
vt 0 1
vt 0.25 1
vt 0.25 0.6875
vt 0 0.6875
vt 0.375 1
vt 0.5 1
vt 0.5 0.6875
vt 0.375 0.6875
vt 0.25 1
vt 0 1
vt 0 0.6875
vt 0.25 0.6875
vt 0.5 1
vt 0.625 1
vt 0.625 0.6875
vt 0.5 0.6875
vt 0.375 0.6875
vt 0.625 0.6875
vt 0.625 0.5625
vt 0.375 0.5625
vt 0 0.6875
vt 0.25 0.6875
vt 0.25 0.5625
vt 0 0.5625
vn 0 0 -1
vn 1 0 0
vn 0 0 1
vn -1 0 0
vn 0 1 0
vn 0 -1 0
usemtl m_d7c9d6c4-bd71-9113-d448-167525cdab35
f 252/572/143 255/571/143 253/570/143 250/569/143
f 251/576/144 252/575/144 250/574/144 249/573/144
f 256/580/145 251/579/145 249/578/145 254/577/145
f 255/584/146 256/583/146 254/582/146 253/581/146
f 254/588/147 249/587/147 250/586/147 253/585/147
f 255/592/148 252/591/148 251/590/148 256/589/148
o core_top
v 2.5 3.125 2.6875
v 2.5 3.125 2.3125
v 2.5 2.875 2.6875
v 2.5 2.875 2.3125
v 2.25 3.125 2.3125
v 2.25 3.125 2.6875
v 2.25 2.875 2.3125
v 2.25 2.875 2.6875
vt 0.25 1
vt 0.375 1
vt 0.375 0.875
vt 0.25 0.875
vt 0.25 1
vt 0.375 1
vt 0.375 0.875
vt 0.25 0.875
vt 0.375 1
vt 0.25 1
vt 0.25 0.875
vt 0.375 0.875
vt 0.625 1
vt 0.75 1
vt 0.75 0.875
vt 0.625 0.875
vt 0.625 0.875
vt 0.75 0.875
vt 0.75 0.75
vt 0.625 0.75
vt 0 1
vt 0 1
vt 0 1
vt 0 1
vn 0 0 -1
vn 1 0 0
vn 0 0 1
vn -1 0 0
vn 0 1 0
vn 0 -1 0
usemtl m_d7c9d6c4-bd71-9113-d448-167525cdab35
f 260/596/149 263/595/149 261/594/149 258/593/149
f 259/600/150 260/599/150 258/598/150 257/597/150
f 264/604/151 259/603/151 257/602/151 262/601/151
f 263/608/152 264/607/152 262/606/152 261/605/152
f 262/612/153 257/611/153 258/610/153 261/609/153
f 263/616/154 260/615/154 259/614/154 264/613/154
o core_bottom
v 2.75 2.3125 2.6875
v 2.75 2.3125 2.3125
v 2.75 2.0625 2.6875
v 2.75 2.0625 2.3125
v 2.5 2.3125 2.3125
v 2.5 2.3125 2.6875
v 2.5 2.0625 2.3125
v 2.5 2.0625 2.6875
vt 0.25 0.875
vt 0.375 0.875
vt 0.375 0.75
vt 0.25 0.75
vt 0.625 0.75
vt 0.75 0.75
vt 0.75 0.625
vt 0.625 0.625
vt 0.375 0.875
vt 0.25 0.875
vt 0.25 0.75
vt 0.375 0.75
vt 0 0.6875
vt 0.125 0.6875
vt 0.125 0.5625
vt 0 0.5625
vt 0 1
vt 0 1
vt 0 1
vt 0 1
vt 0 0.6875
vt 0.125 0.6875
vt 0.125 0.5625
vt 0 0.5625
vn 0 0 -1
vn 1 0 0
vn 0 0 1
vn -1 0 0
vn 0 1 0
vn 0 -1 0
usemtl m_d7c9d6c4-bd71-9113-d448-167525cdab35
f 268/620/155 271/619/155 269/618/155 266/617/155
f 267/624/156 268/623/156 266/622/156 265/621/156
f 272/628/157 267/627/157 265/626/157 270/625/157
f 271/632/158 272/631/158 270/630/158 269/629/158
f 270/636/159 265/635/159 266/634/159 269/633/159
f 271/640/160 268/639/160 267/638/160 272/637/160
o core_top
v -1.5 3.125 -1.3125
v -1.5 3.125 -1.6875
v -1.5 2.875 -1.3125
v -1.5 2.875 -1.6875
v -1.75 3.125 -1.6875
v -1.75 3.125 -1.3125
v -1.75 2.875 -1.6875
v -1.75 2.875 -1.3125
vt 0.25 1
vt 0.375 1
vt 0.375 0.875
vt 0.25 0.875
vt 0.25 1
vt 0.375 1
vt 0.375 0.875
vt 0.25 0.875
vt 0.375 1
vt 0.25 1
vt 0.25 0.875
vt 0.375 0.875
vt 0.625 1
vt 0.75 1
vt 0.75 0.875
vt 0.625 0.875
vt 0.625 0.875
vt 0.75 0.875
vt 0.75 0.75
vt 0.625 0.75
vt 0 1
vt 0 1
vt 0 1
vt 0 1
vn 0 0 -1
vn 1 0 0
vn 0 0 1
vn -1 0 0
vn 0 1 0
vn 0 -1 0
usemtl m_d7c9d6c4-bd71-9113-d448-167525cdab35
f 276/644/161 279/643/161 277/642/161 274/641/161
f 275/648/162 276/647/162 274/646/162 273/645/162
f 280/652/163 275/651/163 273/650/163 278/649/163
f 279/656/164 280/655/164 278/654/164 277/653/164
f 278/660/165 273/659/165 274/658/165 277/657/165
f 279/664/166 276/663/166 275/662/166 280/661/166
o core_base
v -1.25 2.875 -1.3125
v -1.25 2.875 -1.6875
v -1.25 2.3125 -1.3125
v -1.25 2.3125 -1.6875
v -1.75 2.875 -1.6875
v -1.75 2.875 -1.3125
v -1.75 2.3125 -1.6875
v -1.75 2.3125 -1.3125
vt 0 1
vt 0.25 1
vt 0.25 0.6875
vt 0 0.6875
vt 0.375 1
vt 0.5 1
vt 0.5 0.6875
vt 0.375 0.6875
vt 0.25 1
vt 0 1
vt 0 0.6875
vt 0.25 0.6875
vt 0.5 1
vt 0.625 1
vt 0.625 0.6875
vt 0.5 0.6875
vt 0.375 0.6875
vt 0.625 0.6875
vt 0.625 0.5625
vt 0.375 0.5625
vt 0 0.6875
vt 0.25 0.6875
vt 0.25 0.5625
vt 0 0.5625
vn 0 0 -1
vn 1 0 0
vn 0 0 1
vn -1 0 0
vn 0 1 0
vn 0 -1 0
usemtl m_d7c9d6c4-bd71-9113-d448-167525cdab35
f 284/668/167 287/667/167 285/666/167 282/665/167
f 283/672/168 284/671/168 282/670/168 281/669/168
f 288/676/169 283/675/169 281/674/169 286/673/169
f 287/680/170 288/679/170 286/678/170 285/677/170
f 286/684/171 281/683/171 282/682/171 285/681/171
f 287/688/172 284/687/172 283/686/172 288/685/172
o core_bottom
v -1.25 2.3125 -1.3125
v -1.25 2.3125 -1.6875
v -1.25 2.0625 -1.3125
v -1.25 2.0625 -1.6875
v -1.5 2.3125 -1.6875
v -1.5 2.3125 -1.3125
v -1.5 2.0625 -1.6875
v -1.5 2.0625 -1.3125
vt 0.25 0.875
vt 0.375 0.875
vt 0.375 0.75
vt 0.25 0.75
vt 0.625 0.75
vt 0.75 0.75
vt 0.75 0.625
vt 0.625 0.625
vt 0.375 0.875
vt 0.25 0.875
vt 0.25 0.75
vt 0.375 0.75
vt 0 0.6875
vt 0.125 0.6875
vt 0.125 0.5625
vt 0 0.5625
vt 0 1
vt 0 1
vt 0 1
vt 0 1
vt 0 0.6875
vt 0.125 0.6875
vt 0.125 0.5625
vt 0 0.5625
vn 0 0 -1
vn 1 0 0
vn 0 0 1
vn -1 0 0
vn 0 1 0
vn 0 -1 0
usemtl m_d7c9d6c4-bd71-9113-d448-167525cdab35
f 292/692/173 295/691/173 293/690/173 290/689/173
f 291/696/174 292/695/174 290/694/174 289/693/174
f 296/700/175 291/699/175 289/698/175 294/697/175
f 295/704/176 296/703/176 294/702/176 293/701/176
f 294/708/177 289/707/177 290/706/177 293/705/177
f 295/712/178 292/711/178 291/710/178 296/709/178
o core_bottom
v 2.75 2.3125 -1.3125
v 2.75 2.3125 -1.6875
v 2.75 2.0625 -1.3125
v 2.75 2.0625 -1.6875
v 2.5 2.3125 -1.6875
v 2.5 2.3125 -1.3125
v 2.5 2.0625 -1.6875
v 2.5 2.0625 -1.3125
vt 0.25 0.875
vt 0.375 0.875
vt 0.375 0.75
vt 0.25 0.75
vt 0.625 0.75
vt 0.75 0.75
vt 0.75 0.625
vt 0.625 0.625
vt 0.375 0.875
vt 0.25 0.875
vt 0.25 0.75
vt 0.375 0.75
vt 0 0.6875
vt 0.125 0.6875
vt 0.125 0.5625
vt 0 0.5625
vt 0 1
vt 0 1
vt 0 1
vt 0 1
vt 0 0.6875
vt 0.125 0.6875
vt 0.125 0.5625
vt 0 0.5625
vn 0 0 -1
vn 1 0 0
vn 0 0 1
vn -1 0 0
vn 0 1 0
vn 0 -1 0
usemtl m_d7c9d6c4-bd71-9113-d448-167525cdab35
f 300/716/179 303/715/179 301/714/179 298/713/179
f 299/720/180 300/719/180 298/718/180 297/717/180
f 304/724/181 299/723/181 297/722/181 302/721/181
f 303/728/182 304/727/182 302/726/182 301/725/182
f 302/732/183 297/731/183 298/730/183 301/729/183
f 303/736/184 300/735/184 299/734/184 304/733/184
o core_base
v 2.75 2.875 -1.3125
v 2.75 2.875 -1.6875
v 2.75 2.3125 -1.3125
v 2.75 2.3125 -1.6875
v 2.25 2.875 -1.6875
v 2.25 2.875 -1.3125
v 2.25 2.3125 -1.6875
v 2.25 2.3125 -1.3125
vt 0 1
vt 0.25 1
vt 0.25 0.6875
vt 0 0.6875
vt 0.375 1
vt 0.5 1
vt 0.5 0.6875
vt 0.375 0.6875
vt 0.25 1
vt 0 1
vt 0 0.6875
vt 0.25 0.6875
vt 0.5 1
vt 0.625 1
vt 0.625 0.6875
vt 0.5 0.6875
vt 0.375 0.6875
vt 0.625 0.6875
vt 0.625 0.5625
vt 0.375 0.5625
vt 0 0.6875
vt 0.25 0.6875
vt 0.25 0.5625
vt 0 0.5625
vn 0 0 -1
vn 1 0 0
vn 0 0 1
vn -1 0 0
vn 0 1 0
vn 0 -1 0
usemtl m_d7c9d6c4-bd71-9113-d448-167525cdab35
f 308/740/185 311/739/185 309/738/185 306/737/185
f 307/744/186 308/743/186 306/742/186 305/741/186
f 312/748/187 307/747/187 305/746/187 310/745/187
f 311/752/188 312/751/188 310/750/188 309/749/188
f 310/756/189 305/755/189 306/754/189 309/753/189
f 311/760/190 308/759/190 307/758/190 312/757/190
o core_top
v 2.5 3.125 -1.3125
v 2.5 3.125 -1.6875
v 2.5 2.875 -1.3125
v 2.5 2.875 -1.6875
v 2.25 3.125 -1.6875
v 2.25 3.125 -1.3125
v 2.25 2.875 -1.6875
v 2.25 2.875 -1.3125
vt 0.25 1
vt 0.375 1
vt 0.375 0.875
vt 0.25 0.875
vt 0.25 1
vt 0.375 1
vt 0.375 0.875
vt 0.25 0.875
vt 0.375 1
vt 0.25 1
vt 0.25 0.875
vt 0.375 0.875
vt 0.625 1
vt 0.75 1
vt 0.75 0.875
vt 0.625 0.875
vt 0.625 0.875
vt 0.75 0.875
vt 0.75 0.75
vt 0.625 0.75
vt 0 1
vt 0 1
vt 0 1
vt 0 1
vn 0 0 -1
vn 1 0 0
vn 0 0 1
vn -1 0 0
vn 0 1 0
vn 0 -1 0
usemtl m_d7c9d6c4-bd71-9113-d448-167525cdab35
f 316/764/191 319/763/191 317/762/191 314/761/191
f 315/768/192 316/767/192 314/766/192 313/765/192
f 320/772/193 315/771/193 313/770/193 318/769/193
f 319/776/194 320/775/194 318/774/194 317/773/194
f 318/780/195 313/779/195 314/778/195 317/777/195
f 319/784/196 316/783/196 315/782/196 320/781/196
o cube
v 0.5625 0.125 0.5625
v 0.5625 0.125 0.4375
v 0.5625 0 0.5625
v 0.5625 0 0.4375
v 0.4375 0.125 0.4375
v 0.4375 0.125 0.5625
v 0.4375 0 0.4375
v 0.4375 0 0.5625
vt 0 1
vt 0.125 1
vt 0.125 0.875
vt 0 0.875
vt 0 1
vt 0.125 1
vt 0.125 0.875
vt 0 0.875
vt 0 1
vt 0.125 1
vt 0.125 0.875
vt 0 0.875
vt 0 1
vt 0.125 1
vt 0.125 0.875
vt 0 0.875
vt 0 1
vt 0.125 1
vt 0.125 0.875
vt 0 0.875
vt 0 1
vt 0.125 1
vt 0.125 0.875
vt 0 0.875
vn 0 0 -1
vn 1 0 0
vn 0 0 1
vn -1 0 0
vn 0 1 0
vn 0 -1 0
usemtl none
f 324/788/197 327/787/197 325/786/197 322/785/197
f 323/792/198 324/791/198 322/790/198 321/789/198
f 328/796/199 323/795/199 321/794/199 326/793/199
f 327/800/200 328/799/200 326/798/200 325/797/200
f 326/804/201 321/803/201 322/802/201 325/801/201
f 327/808/202 324/807/202 323/806/202 328/805/202
