# Made in Blockbench 5.1.4
mtllib off.mtl

o cube
v 2 0 -1
v -1 0 -1
v -1 1 -1
v 2 1 -1
v 2 0 2
v 2 1 2
v -1 0 2
v -1 1 2
vt 0.09090909090909091 0.4545454545454546
vt 0.36363636363636365 0.4545454545454546
vt 0.36363636363636365 0.5454545454545454
vt 0.09090909090909091 0.5454545454545454
vt 0.09090909090909091 0.4545454545454546
vt 0.36363636363636365 0.4545454545454546
vt 0.36363636363636365 0.5454545454545454
vt 0.09090909090909091 0.5454545454545454
vt 0.09090909090909091 0.4545454545454546
vt 0.36363636363636365 0.4545454545454546
vt 0.36363636363636365 0.5454545454545454
vt 0.09090909090909091 0.5454545454545454
vt 0.09090909090909091 0.4545454545454546
vt 0.36363636363636365 0.4545454545454546
vt 0.36363636363636365 0.5454545454545454
vt 0.09090909090909091 0.5454545454545454
vt 0.5454545454545454 0.6363636363636362
vt 0.8181818181818182 0.6363636363636362
vt 0.8181818181818182 0.9090909090909092
vt 0.5454545454545454 0.9090909090909092
vt 0.09303977272727272 0.6363636363636364
vt 0.36576704545454547 0.6363636363636364
vt 0.36576704545454547 0.9147727272727273
vt 0.09303977272727272 0.9147727272727273
vn 0 0 -1
vn 1 0 0
vn 0 0 1
vn -1 0 0
vn 0 1 0
vn 0 -1 0
usemtl m_e8de4154-57f2-4ab8-434f-e582af15ce3a
f 1/1/1 2/2/1 3/3/1 4/4/1
f 5/5/2 1/6/2 4/7/2 6/8/2
f 7/9/3 5/10/3 6/11/3 8/12/3
f 2/13/4 7/14/4 8/15/4 3/16/4
f 8/17/5 6/18/5 4/19/5 3/20/5
f 2/21/6 1/22/6 5/23/6 7/24/6
o connector4
v -0.2573322854771819 1.4375 -1.4014924707819554
v -0.9502419348606468 1.4375 -1.6885050450557726
v -0.9502419348606468 1.6875 -1.6885050450557726
v -0.2573322854771819 1.6875 -1.4014924707819554
v -0.974159649383465 1.4375 -1.6307625742738172
v -0.28125 1.4375 -1.34375
v -0.28125 1.6875 -1.34375
v -0.974159649383465 1.6875 -1.6307625742738172
vt 0.9090909090909091 1
vt 0.9090909090909091 0.9545454545454546
vt 0.9318181818181818 0.9545454545454546
vt 0.9318181818181818 1
vt 0.9090909090909091 1
vt 0.9090909090909091 0.9545454545454546
vt 0.9318181818181818 0.9545454545454546
vt 0.9318181818181818 1
vt 0.45454545454545453 0.5397727272727273
vt 0.45454545454545453 0.5454545454545454
vt 0.4375 0.5454545454545454
vt 0.4375 0.5397727272727273
vt 0.38636363636363635 0.5397727272727273
vt 0.45454545454545453 0.5397727272727273
vt 0.45454545454545453 0.5454545454545454
vt 0.38636363636363635 0.5454545454545454
vt 0.38636363636363635 0.5397727272727273
vt 0.45454545454545453 0.5397727272727273
vt 0.45454545454545453 0.5454545454545454
vt 0.38636363636363635 0.5454545454545454
vn 0.3826834323650897 0 -0.9238795325112867
vn -0.38268343236508967 0 0.9238795325112868
vn -0.9238795325112861 0 -0.3826834323650914
vn 0 1 0
vn 0 -1 0
usemtl m_e8de4154-57f2-4ab8-434f-e582af15ce3a
f 9/25/7 10/26/7 11/27/7 12/28/7
f 13/29/8 14/30/8 15/31/8 16/32/8
f 10/33/9 13/34/9 16/35/9 11/36/9
f 16/37/10 15/38/10 12/39/10 11/40/10
f 10/41/11 9/42/11 14/43/11 13/44/11
o connector2
v 1.28125 1.4375 -1.40625
v -0.28125 1.4375 -1.40625
v -0.28125 1.6875 -1.40625
v 1.28125 1.6875 -1.40625
v -0.28125 1.4375 -1.34375
v 1.28125 1.4375 -1.34375
v 1.28125 1.6875 -1.34375
v -0.28125 1.6875 -1.34375
vt 0.9318181818181818 0.7954545454545454
vt 0.9318181818181818 0.9545454545454546
vt 0.9090909090909091 0.9545454545454546
vt 0.9090909090909091 0.7954545454545454
vt 0.9318181818181818 0.7954545454545454
vt 0.9318181818181818 0.9545454545454546
vt 0.9090909090909091 0.9545454545454546
vt 0.9090909090909091 0.7954545454545454
vt 0.3522727272727273 0.5397727272727273
vt 0.44886363636363635 0.5397727272727273
vt 0.44886363636363635 0.5454545454545454
vt 0.3522727272727273 0.5454545454545454
vt 0.3522727272727273 0.5397727272727273
vt 0.44886363636363635 0.5397727272727273
vt 0.44886363636363635 0.5454545454545454
vt 0.3522727272727273 0.5454545454545454
vn 0 0 -1
vn 0 0 1
vn 0 1 0
vn 0 -1 0
usemtl m_e8de4154-57f2-4ab8-434f-e582af15ce3a
f 17/45/12 18/46/12 19/47/12 20/48/12
f 21/49/13 22/50/13 23/51/13 24/52/13
f 24/53/14 23/54/14 20/55/14 19/56/14
f 18/57/15 17/58/15 22/59/15 21/60/15
o connector3
v 1.8924994640786914 1.4375 -1.6645873305329548
v 1.2573322854771818 1.4375 -1.4014924707819554
v 1.2573322854771818 1.6875 -1.4014924707819554
v 1.8924994640786914 1.6875 -1.6645873305329548
v 1.9164171786015096 1.4375 -1.606844859750999
v 1.9164171786015096 1.6875 -1.606844859750999
v 1.28125 1.4375 -1.34375
v 1.28125 1.6875 -1.34375
vt 0.9090909090909091 0.7954545454545454
vt 0.9090909090909091 0.75
vt 0.9318181818181818 0.75
vt 0.9318181818181818 0.7954545454545454
vt 0.45454545454545453 0.5397727272727273
vt 0.45454545454545453 0.5454545454545454
vt 0.4375 0.5454545454545454
vt 0.4375 0.5397727272727273
vt 0.9090909090909091 0.7954545454545454
vt 0.9090909090909091 0.75
vt 0.9318181818181818 0.75
vt 0.9318181818181818 0.7954545454545454
vt 0.38636363636363635 0.5397727272727273
vt 0.45454545454545453 0.5397727272727273
vt 0.45454545454545453 0.5454545454545454
vt 0.38636363636363635 0.5454545454545454
vt 0.38636363636363635 0.5397727272727273
vt 0.45454545454545453 0.5397727272727273
vt 0.45454545454545453 0.5454545454545454
vt 0.38636363636363635 0.5454545454545454
vn -0.38268343236509017 0 -0.9238795325112867
vn 0.9238795325112872 0 -0.38268343236508895
vn 0.3826834323650895 0 0.9238795325112868
vn 0 1 0
vn 0 -1 0
usemtl m_e8de4154-57f2-4ab8-434f-e582af15ce3a
f 25/61/16 26/62/16 27/63/16 28/64/16
f 29/65/17 25/66/17 28/67/17 30/68/17
f 31/69/18 29/70/18 30/71/18 32/72/18
f 32/73/19 30/74/19 28/75/19 27/76/19
f 26/77/20 25/78/20 29/79/20 31/80/20
o cube
v -0.23668917489333574 1.25 -1.5981680367315132
v -0.9295988242768007 1.25 -1.8851806110053309
v -0.9295988242768007 2 -1.8851806110053309
v -0.23668917489333574 2 -1.5981680367315132
v -0.28452460393897205 1.25 -1.4826830951676024
v -0.28452460393897205 2 -1.4826830951676024
v -0.9774342533224369 1.25 -1.7696956694414196
v -0.9774342533224369 2 -1.7696956694414196
vt 0.6477272727272727 0.2840909090909084
vt 0.7159090909090909 0.2840909090909084
vt 0.7159090909090909 0.35227272727272674
vt 0.6477272727272727 0.35227272727272674
vt 0.5340909090909091 0.46590909090909094
vt 0.5454545454545454 0.46590909090909094
vt 0.5454545454545454 0.5340909090909092
vt 0.5340909090909091 0.5340909090909092
vt 0.5568181818181818 0.46590909090909094
vt 0.625 0.46590909090909094
vt 0.625 0.5340909090909092
vt 0.5568181818181818 0.5340909090909092
vt 0.45454545454545453 0.46590909090909094
vt 0.4659090909090909 0.46590909090909094
vt 0.4659090909090909 0.5340909090909092
vt 0.45454545454545453 0.5340909090909092
vt 0.4659090909090909 0.5340909090909092
vt 0.5340909090909091 0.5340909090909092
vt 0.5340909090909091 0.5454545454545454
vt 0.4659090909090909 0.5454545454545454
vt 0.4659090909090909 0.4545454545454546
vt 0.5340909090909091 0.4545454545454546
vt 0.5340909090909091 0.46590909090909094
vt 0.4659090909090909 0.46590909090909094
vn 0.3826834323650902 0 -0.9238795325112866
vn 0.9238795325112865 0 0.38268343236509067
vn -0.3826834323650898 0 0.9238795325112868
vn -0.9238795325112873 0 -0.38268343236508867
vn 0 1 0
vn 0 -1 0
usemtl m_e8de4154-57f2-4ab8-434f-e582af15ce3a
f 33/81/21 34/82/21 35/83/21 36/84/21
f 37/85/22 33/86/22 36/87/22 38/88/22
f 39/89/23 37/90/23 38/91/23 40/92/23
f 34/93/24 39/94/24 40/95/24 35/96/24
f 40/97/25 38/98/25 36/99/25 35/100/25
f 34/101/26 33/102/26 37/103/26 39/104/26
o cube
v 0.375 1.375 -1.4375
v 0.375 1.375 -1.5
v 0.375 1.875 -1.5
v 0.375 1.875 -1.4375
v -0.125 1.375 -1.4375
v -0.125 1.875 -1.4375
v -0.125 1.375 -1.5
v -0.125 1.875 -1.5
vt 1 0.9545454545454546
vt 0.9943181818181818 0.9545454545454546
vt 0.9943181818181818 1
vt 1 1
vt 0.5681818181818182 0.4772727272727273
vt 0.6136363636363636 0.4772727272727273
vt 0.6136363636363636 0.5227272727272727
vt 0.5681818181818182 0.5227272727272727
vt 1 0.9545454545454546
vt 0.9943181818181818 0.9545454545454546
vt 0.9943181818181818 1
vt 1 1
vt 0.9943181818181818 0.9545454545454546
vt 0.9943181818181818 1
vt 1 1
vt 1 0.9545454545454546
vt 0.9943181818181818 0.9545454545454546
vt 0.9943181818181818 1
vt 1 1
vt 1 0.9545454545454546
vn 1 0 0
vn 0 0 1
vn -1 0 0
vn 0 1 0
vn 0 -1 0
usemtl m_e8de4154-57f2-4ab8-434f-e582af15ce3a
f 41/105/27 42/106/27 43/107/27 44/108/27
f 45/109/28 41/110/28 44/111/28 46/112/28
f 47/113/29 45/114/29 46/115/29 48/116/29
f 46/117/30 44/118/30 43/119/30 48/120/30
f 47/121/31 42/122/31 41/123/31 45/124/31
o cube
v 0.5 1.25 -1.625
v -0.25 1.25 -1.625
v -0.25 2 -1.625
v 0.5 2 -1.625
v -0.25 1.25 -1.5
v 0.5 1.25 -1.5
v 0.5 2 -1.5
v -0.25 2 -1.5
vt 0.8295454545454546 0.2840909090909084
vt 0.8977272727272727 0.2840909090909084
vt 0.8977272727272727 0.35227272727272674
vt 0.8295454545454546 0.35227272727272674
vt 0.5568181818181818 0.46590909090909094
vt 0.625 0.46590909090909094
vt 0.625 0.5340909090909092
vt 0.5568181818181818 0.5340909090909092
vt 0.45454545454545453 0.46590909090909094
vt 0.4659090909090909 0.46590909090909094
vt 0.4659090909090909 0.5340909090909092
vt 0.45454545454545453 0.5340909090909092
vt 0.4659090909090909 0.5340909090909092
vt 0.5340909090909091 0.5340909090909092
vt 0.5340909090909091 0.5454545454545454
vt 0.4659090909090909 0.5454545454545454
vt 0.4659090909090909 0.4545454545454546
vt 0.5340909090909091 0.4545454545454546
vt 0.5340909090909091 0.46590909090909094
vt 0.4659090909090909 0.46590909090909094
vn 0 0 -1
vn 0 0 1
vn -1 0 0
vn 0 1 0
vn 0 -1 0
usemtl m_e8de4154-57f2-4ab8-434f-e582af15ce3a
f 49/125/32 50/126/32 51/127/32 52/128/32
f 53/129/33 54/130/33 55/131/33 56/132/33
f 50/133/34 53/134/34 56/135/34 51/136/34
f 56/137/35 55/138/35 52/139/35 51/140/35
f 50/141/36 49/142/36 54/143/36 53/144/36
o cube
v 1.125 1.375 -1.4375
v 1.125 1.375 -1.5
v 1.125 1.875 -1.5
v 1.125 1.875 -1.4375
v 0.625 1.375 -1.4375
v 0.625 1.875 -1.4375
v 0.625 1.375 -1.5
v 0.625 1.875 -1.5
vt 1 0.9545454545454546
vt 0.9943181818181818 0.9545454545454546
vt 0.9943181818181818 1
vt 1 1
vt 0.5681818181818182 0.4772727272727273
vt 0.6136363636363636 0.4772727272727273
vt 0.6136363636363636 0.5227272727272727
vt 0.5681818181818182 0.5227272727272727
vt 1 0.9545454545454546
vt 0.9943181818181818 0.9545454545454546
vt 0.9943181818181818 1
vt 1 1
vt 0.9943181818181818 0.9545454545454546
vt 0.9943181818181818 1
vt 1 1
vt 1 0.9545454545454546
vt 0.9943181818181818 0.9545454545454546
vt 0.9943181818181818 1
vt 1 1
vt 1 0.9545454545454546
vn 1 0 0
vn 0 0 1
vn -1 0 0
vn 0 1 0
vn 0 -1 0
usemtl m_e8de4154-57f2-4ab8-434f-e582af15ce3a
f 57/145/37 58/146/37 59/147/37 60/148/37
f 61/149/38 57/150/38 60/151/38 62/152/38
f 63/153/39 61/154/39 62/155/39 64/156/39
f 62/157/40 60/158/40 59/159/40 64/160/40
f 63/161/41 58/162/41 57/163/41 61/164/41
o cube
v 1.25 1.25 -1.625
v 0.5 1.25 -1.625
v 0.5 2 -1.625
v 1.25 2 -1.625
v 1.25 1.25 -1.5
v 1.25 2 -1.5
v 0.5 1.25 -1.5
v 0.5 2 -1.5
vt 0.7386363636363636 0.2840909090909087
vt 0.8068181818181818 0.2840909090909087
vt 0.8068181818181818 0.3522727272727273
vt 0.7386363636363636 0.3522727272727273
vt 0.5340909090909091 0.46590909090909094
vt 0.5454545454545454 0.46590909090909094
vt 0.5454545454545454 0.5340909090909092
vt 0.5340909090909091 0.5340909090909092
vt 0.5568181818181818 0.46590909090909094
vt 0.625 0.46590909090909094
vt 0.625 0.5340909090909092
vt 0.5568181818181818 0.5340909090909092
vt 0.4659090909090909 0.5340909090909092
vt 0.5340909090909091 0.5340909090909092
vt 0.5340909090909091 0.5454545454545454
vt 0.4659090909090909 0.5454545454545454
vt 0.4659090909090909 0.4545454545454546
vt 0.5340909090909091 0.4545454545454546
vt 0.5340909090909091 0.46590909090909094
vt 0.4659090909090909 0.46590909090909094
vn 0 0 -1
vn 1 0 0
vn 0 0 1
vn 0 1 0
vn 0 -1 0
usemtl m_e8de4154-57f2-4ab8-434f-e582af15ce3a
f 65/165/42 66/166/42 67/167/42 68/168/42
f 69/169/43 65/170/43 68/171/43 70/172/43
f 71/173/44 69/174/44 70/175/44 72/176/44
f 72/177/45 70/178/45 68/179/45 67/180/45
f 66/181/46 65/182/46 69/183/46 71/184/46
o cube
v 1.8858670262813444 1.375 -1.6641177696138283
v 1.8619493117585262 1.375 -1.7218602403957837
v 1.8619493117585262 1.875 -1.7218602403957837
v 1.8858670262813444 1.875 -1.6641177696138283
v 1.423927260025701 1.375 -1.4727760534312833
v 1.423927260025701 1.875 -1.4727760534312833
v 1.4000095455028827 1.375 -1.5305185242132389
v 1.4000095455028827 1.875 -1.5305185242132389
vt 1 0.9545454545454546
vt 0.9943181818181818 0.9545454545454546
vt 0.9943181818181818 1
vt 1 1
vt 0.5681818181818182 0.4772727272727273
vt 0.6136363636363636 0.4772727272727273
vt 0.6136363636363636 0.5227272727272727
vt 0.5681818181818182 0.5227272727272727
vt 1 0.9545454545454546
vt 0.9943181818181818 0.9545454545454546
vt 0.9943181818181818 1
vt 1 1
vt 0.9943181818181818 0.9545454545454546
vt 0.9943181818181818 1
vt 1 1
vt 1 0.9545454545454546
vt 0.9943181818181818 0.9545454545454546
vt 0.9943181818181818 1
vt 1 1
vt 1 0.9545454545454546
vn 0.9238795325112861 0 -0.3826834323650914
vn 0.38268343236508995 0 0.9238795325112867
vn -0.9238795325112867 0 0.3826834323650902
vn 0 1 0
vn 0 -1 0
usemtl m_e8de4154-57f2-4ab8-434f-e582af15ce3a
f 73/185/47 74/186/47 75/187/47 76/188/47
f 77/189/48 73/190/48 76/191/48 78/192/48
f 79/193/49 77/194/49 78/195/49 80/196/49
f 78/197/50 76/198/50 75/199/50 80/200/50
f 79/201/51 74/202/51 73/203/51 77/204/51
o cube
v 1.9295988242768007 1.25 -1.8851806110053309
v 1.2366891748933357 1.25 -1.5981680367315132
v 1.2366891748933357 2 -1.5981680367315132
v 1.9295988242768007 2 -1.8851806110053309
v 1.977434253322437 1.25 -1.7696956694414196
v 1.977434253322437 2 -1.7696956694414196
v 1.284524603938972 1.25 -1.4826830951676024
v 1.284524603938972 2 -1.4826830951676024
vt 0.6477272727272727 0.28409090909090917
vt 0.7159090909090909 0.28409090909090917
vt 0.7159090909090909 0.3522727272727275
vt 0.6477272727272727 0.3522727272727275
vt 0.5340909090909091 0.46590909090909094
vt 0.5454545454545454 0.46590909090909094
vt 0.5454545454545454 0.5340909090909092
vt 0.5340909090909091 0.5340909090909092
vt 0.5568181818181818 0.46590909090909094
vt 0.625 0.46590909090909094
vt 0.625 0.5340909090909092
vt 0.5568181818181818 0.5340909090909092
vt 0.45454545454545453 0.46590909090909094
vt 0.4659090909090909 0.46590909090909094
vt 0.4659090909090909 0.5340909090909092
vt 0.45454545454545453 0.5340909090909092
vt 0.4659090909090909 0.5340909090909092
vt 0.5340909090909091 0.5340909090909092
vt 0.5340909090909091 0.5454545454545454
vt 0.4659090909090909 0.5454545454545454
vt 0.4659090909090909 0.4545454545454546
vt 0.5340909090909091 0.4545454545454546
vt 0.5340909090909091 0.46590909090909094
vt 0.4659090909090909 0.46590909090909094
vn -0.3826834323650902 0 -0.9238795325112866
vn 0.9238795325112873 0 -0.38268343236508867
vn 0.3826834323650897 0 0.9238795325112868
vn -0.9238795325112867 0 0.3826834323650899
vn 0 1 0
vn 0 -1 0
usemtl m_e8de4154-57f2-4ab8-434f-e582af15ce3a
f 81/205/52 82/206/52 83/207/52 84/208/52
f 85/209/53 81/210/53 84/211/53 86/212/53
f 87/213/54 85/214/54 86/215/54 88/216/54
f 82/217/55 87/218/55 88/219/55 83/220/55
f 88/221/56 86/222/56 84/223/56 83/224/56
f 82/225/57 81/226/57 85/227/57 87/228/57
o cube
v -0.4239272600257009 1.375 -1.4727760534312833
v -0.4000095455028828 1.375 -1.5305185242132389
v -0.4000095455028828 1.875 -1.5305185242132389
v -0.4239272600257009 1.875 -1.4727760534312833
v -0.8858670262813444 1.375 -1.6641177696138283
v -0.8858670262813444 1.875 -1.6641177696138283
v -0.8619493117585262 1.375 -1.7218602403957837
v -0.8619493117585262 1.875 -1.7218602403957837
vt 1 0.9545454545454546
vt 0.9943181818181818 0.9545454545454546
vt 0.9943181818181818 1
vt 1 1
vt 0.5681818181818182 0.4772727272727273
vt 0.6136363636363636 0.4772727272727273
vt 0.6136363636363636 0.5227272727272727
vt 0.5681818181818182 0.5227272727272727
vt 1 0.9545454545454546
vt 0.9943181818181818 0.9545454545454546
vt 0.9943181818181818 1
vt 1 1
vt 0.9943181818181818 0.9545454545454546
vt 0.9943181818181818 1
vt 1 1
vt 1 0.9545454545454546
vt 0.9943181818181818 0.9545454545454546
vt 0.9943181818181818 1
vt 1 1
vt 1 0.9545454545454546
vn 0.9238795325112872 0 0.38268343236508856
vn -0.38268343236508995 0 0.9238795325112867
vn -0.9238795325112861 0 -0.3826834323650914
vn 0 1 0
vn 0 -1 0
usemtl m_e8de4154-57f2-4ab8-434f-e582af15ce3a
f 89/229/58 90/230/58 91/231/58 92/232/58
f 93/233/59 89/234/59 92/235/59 94/236/59
f 95/237/60 93/238/60 94/239/60 96/240/60
f 94/241/61 92/242/61 91/243/61 96/244/61
f 95/245/62 90/246/62 89/247/62 93/248/62
o cube
v 2 0 -2
v -1 0 -2
v -1 0.5 -2
v 2 0.5 -2
v -1 0.5 -1
v 2 0.5 -1
v 2 0 -1
v -1 0 -1
vt 0.09090909090909091 0.4545454545454546
vt 0.36363636363636365 0.4545454545454546
vt 0.36363636363636365 0.5
vt 0.09090909090909091 0.5
vt 0.5511363636363636 0.9090909090909091
vt 0.8238636363636364 0.9090909090909091
vt 0.8238636363636364 1
vt 0.5511363636363636 1
vt 0.09090909090909091 0.5454545454545454
vt 0.36363636363636365 0.5454545454545454
vt 0.36363636363636365 0.6363636363636364
vt 0.09090909090909091 0.6363636363636364
vn 0 0 -1
vn 0 1 0
vn 0 -1 0
usemtl m_e8de4154-57f2-4ab8-434f-e582af15ce3a
f 97/249/63 98/250/63 99/251/63 100/252/63
f 101/253/64 102/254/64 100/255/64 99/256/64
f 98/257/65 97/258/65 103/259/65 104/260/65
o cube
v -1 0 3
v 0 0 3
v 0 0.5 3
v -1 0.5 3
v 0 0.5 2
v -1 0.5 2
v -1 0 2
v 0 0 2
vt 0.09090909090909091 0.4545454545454546
vt 0.18181818181818182 0.4545454545454546
vt 0.18181818181818182 0.5
vt 0.09090909090909091 0.5
vt 0.5397727272727273 0.5454545454545454
vt 0.6306818181818182 0.5454545454545454
vt 0.6306818181818182 0.6363636363636364
vt 0.5397727272727273 0.6363636363636364
vt 0.2784090909090909 0.9090909090909091
vt 0.3693181818181818 0.9090909090909091
vt 0.3693181818181818 1
vt 0.2784090909090909 1
vn 0 0 1
vn 0 1 0
vn 0 -1 0
usemtl m_e8de4154-57f2-4ab8-434f-e582af15ce3a
f 105/261/66 106/262/66 107/263/66 108/264/66
f 108/265/67 107/266/67 109/267/67 110/268/67
f 111/269/68 112/270/68 106/271/68 105/272/68
o cube
v -2 0 -1
v -2 0 2
v -2 0.5 2
v -2 0.5 -1
v -1 0.5 2
v -1 0.5 -1
v -1 0 -1
v -1 0 2
vt 0.09090909090909091 0.4545454545454546
vt 0.36363636363636365 0.4545454545454546
vt 0.36363636363636365 0.5
vt 0.09090909090909091 0.5
vt 0.45454545454545453 0.6363636363636364
vt 0.5454545454545454 0.6363636363636364
vt 0.5454545454545454 0.9090909090909091
vt 0.45454545454545453 0.9090909090909091
vt 0 0.6363636363636364
vt 0.09090909090909091 0.6363636363636364
vt 0.09090909090909091 0.9090909090909091
vt 0 0.9090909090909091
vn -1 0 0
vn 0 1 0
vn 0 -1 0
usemtl m_e8de4154-57f2-4ab8-434f-e582af15ce3a
f 113/273/69 114/274/69 115/275/69 116/276/69
f 115/277/70 117/278/70 118/279/70 116/280/70
f 113/281/71 119/282/71 120/283/71 114/284/71
o cube
v 3 0 2
v 3 0 -1
v 3 0.5 -1
v 3 0.5 2
v 2 0.5 2
v 2 0.5 -1
v 2 0 -1
v 2 0 2
vt 0.09090909090909091 0.4545454545454546
vt 0.36363636363636365 0.4545454545454546
vt 0.36363636363636365 0.5
vt 0.09090909090909091 0.5
vt 0.8181818181818182 0.6363636363636364
vt 0.9090909090909091 0.6363636363636364
vt 0.9090909090909091 0.9090909090909091
vt 0.8181818181818182 0.9090909090909091
vt 0.36363636363636365 0.6363636363636364
vt 0.45454545454545453 0.6363636363636364
vt 0.45454545454545453 0.9090909090909091
vt 0.36363636363636365 0.9090909090909091
vn 1 0 0
vn 0 1 0
vn 0 -1 0
usemtl m_e8de4154-57f2-4ab8-434f-e582af15ce3a
f 121/285/72 122/286/72 123/287/72 124/288/72
f 125/289/73 124/290/73 123/291/73 126/292/73
f 127/293/74 122/294/74 121/295/74 128/296/74
o cube
v 1 0 3
v 2 0 3
v 2 0.5 3
v 1 0.5 3
v 2 0.5 2
v 1 0.5 2
v 1 0 2
v 2 0 2
vt 0.2727272727272727 0.4545454545454546
vt 0.36363636363636365 0.4545454545454546
vt 0.36363636363636365 0.5
vt 0.2727272727272727 0.5
vt 0.7272727272727273 0.5454545454545454
vt 0.8181818181818182 0.5454545454545454
vt 0.8181818181818182 0.6363636363636364
vt 0.7272727272727273 0.6363636363636364
vt 0.09090909090909091 0.9090909090909091
vt 0.18181818181818182 0.9090909090909091
vt 0.18181818181818182 1
vt 0.09090909090909091 1
vn 0 0 1
vn 0 1 0
vn 0 -1 0
usemtl m_e8de4154-57f2-4ab8-434f-e582af15ce3a
f 129/297/75 130/298/75 131/299/75 132/300/75
f 132/301/76 131/302/76 133/303/76 134/304/76
f 135/305/77 136/306/77 130/307/77 129/308/77
o cube
v 3 0 -2
v 2 0 -2
v 2 1 -2
v 3 1 -2
v 3 0 -1
v 3 1 -1
v 2 0 -1
v 2 1 -1
vt 0 0.45454545454545525
vt 0.09090909090909091 0.45454545454545525
vt 0.09090909090909091 0.5454545454545459
vt 0 0.5454545454545459
vt 0.090909090909091 0.45454545454545514
vt 0 0.45454545454545514
vt 0 0.5454545454545459
vt 0.090909090909091 0.5454545454545459
vt 0.09090909090909091 0.4545454545454546
vt 0.18181818181818182 0.4545454545454546
vt 0.18181818181818182 0.5454545454545454
vt 0.09090909090909091 0.5454545454545454
vt 0.2727272727272727 0.4545454545454546
vt 0.36363636363636365 0.4545454545454546
vt 0.36363636363636365 0.5454545454545454
vt 0.2727272727272727 0.5454545454545454
vt 0 0.2727272727272727
vt 0.09090909090909091 0.2727272727272727
vt 0.09090909090909091 0.36363636363636365
vt 0 0.36363636363636365
vt 0.36363636363636365 0.5454545454545454
vt 0.45454545454545453 0.5454545454545454
vt 0.45454545454545453 0.6363636363636364
vt 0.36363636363636365 0.6363636363636364
vn 0 0 -1
vn 1 0 0
vn 0 0 1
vn -1 0 0
vn 0 1 0
vn 0 -1 0
usemtl m_e8de4154-57f2-4ab8-434f-e582af15ce3a
f 137/309/78 138/310/78 139/311/78 140/312/78
f 141/313/79 137/314/79 140/315/79 142/316/79
f 143/317/80 141/318/80 142/319/80 144/320/80
f 138/321/81 143/322/81 144/323/81 139/324/81
f 144/325/82 142/326/82 140/327/82 139/328/82
f 138/329/83 137/330/83 141/331/83 143/332/83
o cube
v -1 0 -2
v -2 0 -2
v -2 1 -2
v -1 1 -2
v -1 0 -1
v -1 1 -1
v -2 0 -1
v -2 1 -1
vt 0.09090909090909088 0.45454545454545514
vt 0 0.45454545454545514
vt 0 0.5454545454545459
vt 0.09090909090909088 0.5454545454545459
vt 0.2727272727272727 0.4545454545454546
vt 0.36363636363636365 0.4545454545454546
vt 0.36363636363636365 0.5454545454545454
vt 0.2727272727272727 0.5454545454545454
vt 0.2727272727272727 0.4545454545454546
vt 0.36363636363636365 0.4545454545454546
vt 0.36363636363636365 0.5454545454545454
vt 0.2727272727272727 0.5454545454545454
vt 0 0.45454545454545525
vt 0.09090909090909091 0.45454545454545525
vt 0.09090909090909091 0.5454545454545459
vt 0 0.5454545454545459
vt 0 0.2727272727272727
vt 0.09090909090909091 0.2727272727272727
vt 0.09090909090909091 0.36363636363636365
vt 0 0.36363636363636365
vt 0 0.5454545454545454
vt 0.09090909090909091 0.5454545454545454
vt 0.09090909090909091 0.6363636363636364
vt 0 0.6363636363636364
vn 0 0 -1
vn 1 0 0
vn 0 0 1
vn -1 0 0
vn 0 1 0
vn 0 -1 0
usemtl m_e8de4154-57f2-4ab8-434f-e582af15ce3a
f 145/333/84 146/334/84 147/335/84 148/336/84
f 149/337/85 145/338/85 148/339/85 150/340/85
f 151/341/86 149/342/86 150/343/86 152/344/86
f 146/345/87 151/346/87 152/347/87 147/348/87
f 152/349/88 150/350/88 148/351/88 147/352/88
f 146/353/89 145/354/89 149/355/89 151/356/89
o cube
v -1 0 2
v -2 0 2
v -2 1 2
v -1 1 2
v -1 0 3
v -1 1 3
v -2 0 3
v -2 1 3
vt 0.2727272727272727 0.4545454545454546
vt 0.36363636363636365 0.4545454545454546
vt 0.36363636363636365 0.5454545454545454
vt 0.2727272727272727 0.5454545454545454
vt 0.2727272727272727 0.4545454545454546
vt 0.36363636363636365 0.4545454545454546
vt 0.36363636363636365 0.5454545454545454
vt 0.2727272727272727 0.5454545454545454
vt 0 0.45454545454545525
vt 0.09090909090909091 0.45454545454545525
vt 0.09090909090909091 0.5454545454545459
vt 0 0.5454545454545459
vt 0.09090909090909083 0.45454545454545514
vt 0 0.45454545454545514
vt 0 0.5454545454545459
vt 0.09090909090909083 0.5454545454545459
vt 0 0.2727272727272727
vt 0.09090909090909091 0.2727272727272727
vt 0.09090909090909091 0.36363636363636365
vt 0 0.36363636363636365
vt 0 0.9090909090909091
vt 0.09090909090909091 0.9090909090909091
vt 0.09090909090909091 1
vt 0 1
vn 0 0 -1
vn 1 0 0
vn 0 0 1
vn -1 0 0
vn 0 1 0
vn 0 -1 0
usemtl m_e8de4154-57f2-4ab8-434f-e582af15ce3a
f 153/357/90 154/358/90 155/359/90 156/360/90
f 157/361/91 153/362/91 156/363/91 158/364/91
f 159/365/92 157/366/92 158/367/92 160/368/92
f 154/369/93 159/370/93 160/371/93 155/372/93
f 160/373/94 158/374/94 156/375/94 155/376/94
f 154/377/95 153/378/95 157/379/95 159/380/95
o cube
v 3 0 2
v 2 0 2
v 2 1 2
v 3 1 2
v 3 0 3
v 3 1 3
v 2 0 3
v 2 1 3
vt 0.2727272727272727 0.4545454545454546
vt 0.36363636363636365 0.4545454545454546
vt 0.36363636363636365 0.5454545454545454
vt 0.2727272727272727 0.5454545454545454
vt 0 0.45454545454545514
vt 0.09090909090909091 0.45454545454545514
vt 0.09090909090909091 0.5454545454545456
vt 0 0.5454545454545456
vt 0.09090909090909094 0.45454545454545525
vt 0 0.45454545454545525
vt 0 0.5454545454545459
vt 0.09090909090909094 0.5454545454545459
vt 0.2727272727272727 0.4545454545454546
vt 0.36363636363636365 0.4545454545454546
vt 0.36363636363636365 0.5454545454545454
vt 0.2727272727272727 0.5454545454545454
vt 0 0.2727272727272727
vt 0.09090909090909091 0.2727272727272727
vt 0.09090909090909091 0.36363636363636365
vt 0 0.36363636363636365
vt 0.36363636363636365 0.9090909090909091
vt 0.45454545454545453 0.9090909090909091
vt 0.45454545454545453 1
vt 0.36363636363636365 1
vn 0 0 -1
vn 1 0 0
vn 0 0 1
vn -1 0 0
vn 0 1 0
vn 0 -1 0
usemtl m_e8de4154-57f2-4ab8-434f-e582af15ce3a
f 161/381/96 162/382/96 163/383/96 164/384/96
f 165/385/97 161/386/97 164/387/97 166/388/97
f 167/389/98 165/390/98 166/391/98 168/392/98
f 162/393/99 167/394/99 168/395/99 163/396/99
f 168/397/100 166/398/100 164/399/100 163/400/100
f 162/401/101 161/402/101 165/403/101 167/404/101
o cube
v 0.1875 0.9375 2.1875
v 0.1875 0.9375 2.1875
v 0.1875 1 2.1875
v 0.1875 1 2.1875
v 0.1875 0.9375 2.8125
v 0.1875 1 2.8125
v 0.1875 0.9375 2.8125
v 0.1875 1 2.8125
vt 0.75 0.9375
vt 0.75 0.9375
vt 0.75 1
vt 0.75 1
vt 0.9318181818181818 0.5340909090909092
vt 0.9886363636363636 0.5340909090909092
vt 0.9886363636363636 0.5284090909090908
vt 0.9318181818181818 0.5284090909090908
vt 0 0.9375
vt 0 0.9375
vt 0 1
vt 0 1
vt 0 0.3125
vt 0 0.3125
vt 0 0.9375
vt 0 0.9375
vt 0 0.3125
vt 0 0.3125
vt 0 0.9375
vt 0 0.9375
vn 0 0 0
vn 1 0 0
vn 0 0 0
vn 0 0 0
vn 0 0 0
usemtl none
f 169/405/102 170/406/102 171/407/102 172/408/102
usemtl m_e8de4154-57f2-4ab8-434f-e582af15ce3a
f 173/409/103 169/410/103 172/411/103 174/412/103
usemtl none
f 175/413/104 173/414/104 174/415/104 176/416/104
f 176/417/105 174/418/105 172/419/105 171/420/105
f 170/421/106 169/422/106 173/423/106 175/424/106
o cube
v 0.8125 0.9375 2.1875
v 0.8125 0.9375 2.1875
v 0.8125 1 2.1875
v 0.8125 1 2.1875
v 0.8125 0.9375 2.8125
v 0.8125 0.9375 2.8125
v 0.8125 1 2.8125
v 0.8125 1 2.8125
vt 0.75 0.9375
vt 0.75 0.9375
vt 0.75 1
vt 0.75 1
vt 0 0.9375
vt 0 0.9375
vt 0 1
vt 0 1
vt 0.9318181818181818 0.5340909090909092
vt 0.9886363636363636 0.5340909090909092
vt 0.9886363636363636 0.5284090909090908
vt 0.9318181818181818 0.5284090909090908
vt 0 0.3125
vt 0 0.3125
vt 0 0.9375
vt 0 0.9375
vt 0 0.3125
vt 0 0.3125
vt 0 0.9375
vt 0 0.9375
vn 0 0 0
vn 0 0 0
vn -1 0 0
vn 0 0 0
vn 0 0 0
usemtl none
f 177/425/107 178/426/107 179/427/107 180/428/107
f 181/429/108 182/430/108 183/431/108 184/432/108
usemtl m_e8de4154-57f2-4ab8-434f-e582af15ce3a
f 178/433/109 181/434/109 184/435/109 179/436/109
usemtl none
f 184/437/110 183/438/110 180/439/110 179/440/110
f 178/441/111 177/442/111 182/443/111 181/444/111
o cube
v 0.1875 0.9375 2.1875
v 0.8125 0.9375 2.1875
v 0.8125 1 2.1875
v 0.1875 1 2.1875
vt 0.9261363636363636 0.5340909090909092
vt 0.9829545454545454 0.5340909090909092
vt 0.9829545454545454 0.5284090909090908
vt 0.9261363636363636 0.5284090909090908
vn 0 0 1
usemtl m_e8de4154-57f2-4ab8-434f-e582af15ce3a
f 185/445/112 186/446/112 187/447/112 188/448/112
o cube
v 0.8125 0.9375 2.8125
v 0.1875 0.9375 2.8125
v 0.1875 1 2.8125
v 0.8125 1 2.8125
v 0.8125 0.9375 2.8125
v 0.8125 1 2.8125
v 0.1875 0.9375 2.8125
v 0.1875 1 2.8125
vt 0.9261363636363636 0.5340909090909092
vt 0.9829545454545454 0.5340909090909092
vt 0.9829545454545454 0.5284090909090908
vt 0.9261363636363636 0.5284090909090908
vt 0.75 0.9375
vt 0.75 0.9375
vt 0.75 1
vt 0.75 1
vt 0 0.9375
vt 0 0.9375
vt 0 1
vt 0 1
vt 0 1
vt 0.625 1
vt 0.625 1
vt 0 1
vt 0 0.25
vt 0.625 0.25
vt 0.625 0.25
vt 0 0.25
vn 0 0 -1
vn 0 0 0
vn 0 0 0
vn 0 0 0
vn 0 0 0
usemtl m_e8de4154-57f2-4ab8-434f-e582af15ce3a
f 189/449/113 190/450/113 191/451/113 192/452/113
usemtl none
f 193/453/114 189/454/114 192/455/114 194/456/114
f 190/457/115 195/458/115 196/459/115 191/460/115
f 196/461/116 194/462/116 192/463/116 191/464/116
f 190/465/117 189/466/117 193/467/117 195/468/117
o cube
v 1 0 3
v 1 0 2
v 1 1 2
v 1 1 3
v 0 0 3
v 0 1 3
v 0 0 2
v 0 1 2
vt 0.09090909090909091 0.4545454545454546
vt 0.18181818181818182 0.4545454545454546
vt 0.18181818181818182 0.5454545454545454
vt 0.09090909090909091 0.5454545454545454
vt 0.18181818181818182 0.4545454545454546
vt 0.2727272727272727 0.4545454545454546
vt 0.2727272727272727 0.5454545454545454
vt 0.18181818181818182 0.5454545454545454
vt 0.2727272727272727 0.4545454545454546
vt 0.36363636363636365 0.4545454545454546
vt 0.36363636363636365 0.5454545454545454
vt 0.2727272727272727 0.5454545454545454
vt 0.9090909090909091 0.4545454545454546
vt 1 0.4545454545454546
vt 1 0.5454545454545454
vt 0.9090909090909091 0.5454545454545454
vt 0.18181818181818182 0.9090909090909091
vt 0.2727272727272727 0.9090909090909091
vt 0.2727272727272727 1
vt 0.18181818181818182 1
vn 1 0 0
vn 0 0 1
vn -1 0 0
vn 0 1 0
vn 0 -1 0
usemtl m_e8de4154-57f2-4ab8-434f-e582af15ce3a
f 197/469/118 198/470/118 199/471/118 200/472/118
f 201/473/119 197/474/119 200/475/119 202/476/119
f 203/477/120 201/478/120 202/479/120 204/480/120
f 202/481/121 200/482/121 199/483/121 204/484/121
f 203/485/122 198/486/122 197/487/122 201/488/122
o cube
v 0.1875 0.9375 2.8125
v 0.8125 0.9375 2.8125
v 0.8125 0.9375 2.1875
v 0.1875 0.9375 2.1875
vt 0.6534090909090908 0.2897727272727273
vt 0.7102272727272727 0.2897727272727273
vt 0.7102272727272727 0.34659090909090906
vt 0.6534090909090908 0.34659090909090906
vn 0 1 0
usemtl m_e8de4154-57f2-4ab8-434f-e582af15ce3a
f 205/489/123 206/490/123 207/491/123 208/492/123
o cube
v -0.0006249999999998757 -0.0006249999999999867 3.000625
v 1.0006249999999999 -0.0006249999999999867 3.000625
v 1.0006249999999999 1.0006249999999999 3.000625
v -0.0006249999999998757 1.0006249999999999 3.000625
vt 0.9090909090909091 0.5454545454545454
vt 1 0.5454545454545454
vt 1 0.6363636363636364
vt 0.9090909090909091 0.6363636363636364
vn 0 0 1
usemtl m_e8de4154-57f2-4ab8-434f-e582af15ce3a
f 209/493/124 210/494/124 211/495/124 212/496/124
o core_top
v -1.5 2.875 2.3125
v -1.75 2.875 2.3125
v -1.75 3.125 2.3125
v -1.5 3.125 2.3125
v -1.5 2.875 2.6875
v -1.5 3.125 2.6875
v -1.75 2.875 2.6875
v -1.75 3.125 2.6875
vt 0.25 0.875
vt 0.375 0.875
vt 0.375 1
vt 0.25 1
vt 0.25 0.875
vt 0.375 0.875
vt 0.375 1
vt 0.25 1
vt 0.375 0.875
vt 0.25 0.875
vt 0.25 1
vt 0.375 1
vt 0.625 0.875
vt 0.75 0.875
vt 0.75 1
vt 0.625 1
vt 0.625 0.75
vt 0.75 0.75
vt 0.75 0.875
vt 0.625 0.875
vt 0 1
vt 0 1
vt 0 1
vt 0 1
vn 0 0 -1
vn 1 0 0
vn 0 0 1
vn -1 0 0
vn 0 1 0
vn 0 -1 0
usemtl m_b42c24be-aea7-3cba-5dc4-465169354988
f 213/497/125 214/498/125 215/499/125 216/500/125
f 217/501/126 213/502/126 216/503/126 218/504/126
f 219/505/127 217/506/127 218/507/127 220/508/127
f 214/509/128 219/510/128 220/511/128 215/512/128
f 220/513/129 218/514/129 216/515/129 215/516/129
f 214/517/130 213/518/130 217/519/130 219/520/130
o core_bottom
v -1.25 2.0625 2.3125
v -1.5 2.0625 2.3125
v -1.5 2.3125 2.3125
v -1.25 2.3125 2.3125
v -1.25 2.0625 2.6875
v -1.25 2.3125 2.6875
v -1.5 2.0625 2.6875
v -1.5 2.3125 2.6875
vt 0.25 0.75
vt 0.375 0.75
vt 0.375 0.875
vt 0.25 0.875
vt 0.625 0.625
vt 0.75 0.625
vt 0.75 0.75
vt 0.625 0.75
vt 0.375 0.75
vt 0.25 0.75
vt 0.25 0.875
vt 0.375 0.875
vt 0 0.5625
vt 0.125 0.5625
vt 0.125 0.6875
vt 0 0.6875
vt 0 1
vt 0 1
vt 0 1
vt 0 1
vt 0 0.5625
vt 0.125 0.5625
vt 0.125 0.6875
vt 0 0.6875
vn 0 0 -1
vn 1 0 0
vn 0 0 1
vn -1 0 0
vn 0 1 0
vn 0 -1 0
usemtl m_b42c24be-aea7-3cba-5dc4-465169354988
f 221/521/131 222/522/131 223/523/131 224/524/131
f 225/525/132 221/526/132 224/527/132 226/528/132
f 227/529/133 225/530/133 226/531/133 228/532/133
f 222/533/134 227/534/134 228/535/134 223/536/134
f 228/537/135 226/538/135 224/539/135 223/540/135
f 222/541/136 221/542/136 225/543/136 227/544/136
o core_base
v -1.25 2.3125 2.3125
v -1.75 2.3125 2.3125
v -1.75 2.875 2.3125
v -1.25 2.875 2.3125
v -1.25 2.3125 2.6875
v -1.25 2.875 2.6875
v -1.75 2.3125 2.6875
v -1.75 2.875 2.6875
vt 0 0.6875
vt 0.25 0.6875
vt 0.25 1
vt 0 1
vt 0.375 0.6875
vt 0.5 0.6875
vt 0.5 1
vt 0.375 1
vt 0.25 0.6875
vt 0 0.6875
vt 0 1
vt 0.25 1
vt 0.5 0.6875
vt 0.625 0.6875
vt 0.625 1
vt 0.5 1
vt 0.375 0.5625
vt 0.625 0.5625
vt 0.625 0.6875
vt 0.375 0.6875
vt 0 0.5625
vt 0.25 0.5625
vt 0.25 0.6875
vt 0 0.6875
vn 0 0 -1
vn 1 0 0
vn 0 0 1
vn -1 0 0
vn 0 1 0
vn 0 -1 0
usemtl m_b42c24be-aea7-3cba-5dc4-465169354988
f 229/545/137 230/546/137 231/547/137 232/548/137
f 233/549/138 229/550/138 232/551/138 234/552/138
f 235/553/139 233/554/139 234/555/139 236/556/139
f 230/557/140 235/558/140 236/559/140 231/560/140
f 236/561/141 234/562/141 232/563/141 231/564/141
f 230/565/142 229/566/142 233/567/142 235/568/142
o core_base
v 2.75 2.3125 2.3125
v 2.25 2.3125 2.3125
v 2.25 2.875 2.3125
v 2.75 2.875 2.3125
v 2.75 2.3125 2.6875
v 2.75 2.875 2.6875
v 2.25 2.3125 2.6875
v 2.25 2.875 2.6875
vt 0 0.6875
vt 0.25 0.6875
vt 0.25 1
vt 0 1
vt 0.375 0.6875
vt 0.5 0.6875
vt 0.5 1
vt 0.375 1
vt 0.25 0.6875
vt 0 0.6875
vt 0 1
vt 0.25 1
vt 0.5 0.6875
vt 0.625 0.6875
vt 0.625 1
vt 0.5 1
vt 0.375 0.5625
vt 0.625 0.5625
vt 0.625 0.6875
vt 0.375 0.6875
vt 0 0.5625
vt 0.25 0.5625
vt 0.25 0.6875
vt 0 0.6875
vn 0 0 -1
vn 1 0 0
vn 0 0 1
vn -1 0 0
vn 0 1 0
vn 0 -1 0
usemtl m_b42c24be-aea7-3cba-5dc4-465169354988
f 237/569/143 238/570/143 239/571/143 240/572/143
f 241/573/144 237/574/144 240/575/144 242/576/144
f 243/577/145 241/578/145 242/579/145 244/580/145
f 238/581/146 243/582/146 244/583/146 239/584/146
f 244/585/147 242/586/147 240/587/147 239/588/147
f 238/589/148 237/590/148 241/591/148 243/592/148
o core_top
v 2.5 2.875 2.3125
v 2.25 2.875 2.3125
v 2.25 3.125 2.3125
v 2.5 3.125 2.3125
v 2.5 2.875 2.6875
v 2.5 3.125 2.6875
v 2.25 2.875 2.6875
v 2.25 3.125 2.6875
vt 0.25 0.875
vt 0.375 0.875
vt 0.375 1
vt 0.25 1
vt 0.25 0.875
vt 0.375 0.875
vt 0.375 1
vt 0.25 1
vt 0.375 0.875
vt 0.25 0.875
vt 0.25 1
vt 0.375 1
vt 0.625 0.875
vt 0.75 0.875
vt 0.75 1
vt 0.625 1
vt 0.625 0.75
vt 0.75 0.75
vt 0.75 0.875
vt 0.625 0.875
vt 0 1
vt 0 1
vt 0 1
vt 0 1
vn 0 0 -1
vn 1 0 0
vn 0 0 1
vn -1 0 0
vn 0 1 0
vn 0 -1 0
usemtl m_b42c24be-aea7-3cba-5dc4-465169354988
f 245/593/149 246/594/149 247/595/149 248/596/149
f 249/597/150 245/598/150 248/599/150 250/600/150
f 251/601/151 249/602/151 250/603/151 252/604/151
f 246/605/152 251/606/152 252/607/152 247/608/152
f 252/609/153 250/610/153 248/611/153 247/612/153
f 246/613/154 245/614/154 249/615/154 251/616/154
o core_bottom
v 2.75 2.0625 2.3125
v 2.5 2.0625 2.3125
v 2.5 2.3125 2.3125
v 2.75 2.3125 2.3125
v 2.75 2.0625 2.6875
v 2.75 2.3125 2.6875
v 2.5 2.0625 2.6875
v 2.5 2.3125 2.6875
vt 0.25 0.75
vt 0.375 0.75
vt 0.375 0.875
vt 0.25 0.875
vt 0.625 0.625
vt 0.75 0.625
vt 0.75 0.75
vt 0.625 0.75
vt 0.375 0.75
vt 0.25 0.75
vt 0.25 0.875
vt 0.375 0.875
vt 0 0.5625
vt 0.125 0.5625
vt 0.125 0.6875
vt 0 0.6875
vt 0 1
vt 0 1
vt 0 1
vt 0 1
vt 0 0.5625
vt 0.125 0.5625
vt 0.125 0.6875
vt 0 0.6875
vn 0 0 -1
vn 1 0 0
vn 0 0 1
vn -1 0 0
vn 0 1 0
vn 0 -1 0
usemtl m_b42c24be-aea7-3cba-5dc4-465169354988
f 253/617/155 254/618/155 255/619/155 256/620/155
f 257/621/156 253/622/156 256/623/156 258/624/156
f 259/625/157 257/626/157 258/627/157 260/628/157
f 254/629/158 259/630/158 260/631/158 255/632/158
f 260/633/159 258/634/159 256/635/159 255/636/159
f 254/637/160 253/638/160 257/639/160 259/640/160
o core_top
v -1.5 2.875 -1.6875
v -1.75 2.875 -1.6875
v -1.75 3.125 -1.6875
v -1.5 3.125 -1.6875
v -1.5 2.875 -1.3125
v -1.5 3.125 -1.3125
v -1.75 2.875 -1.3125
v -1.75 3.125 -1.3125
vt 0.25 0.875
vt 0.375 0.875
vt 0.375 1
vt 0.25 1
vt 0.25 0.875
vt 0.375 0.875
vt 0.375 1
vt 0.25 1
vt 0.375 0.875
vt 0.25 0.875
vt 0.25 1
vt 0.375 1
vt 0.625 0.875
vt 0.75 0.875
vt 0.75 1
vt 0.625 1
vt 0.625 0.75
vt 0.75 0.75
vt 0.75 0.875
vt 0.625 0.875
vt 0 1
vt 0 1
vt 0 1
vt 0 1
vn 0 0 -1
vn 1 0 0
vn 0 0 1
vn -1 0 0
vn 0 1 0
vn 0 -1 0
usemtl m_b42c24be-aea7-3cba-5dc4-465169354988
f 261/641/161 262/642/161 263/643/161 264/644/161
f 265/645/162 261/646/162 264/647/162 266/648/162
f 267/649/163 265/650/163 266/651/163 268/652/163
f 262/653/164 267/654/164 268/655/164 263/656/164
f 268/657/165 266/658/165 264/659/165 263/660/165
f 262/661/166 261/662/166 265/663/166 267/664/166
o core_base
v -1.25 2.3125 -1.6875
v -1.75 2.3125 -1.6875
v -1.75 2.875 -1.6875
v -1.25 2.875 -1.6875
v -1.25 2.3125 -1.3125
v -1.25 2.875 -1.3125
v -1.75 2.3125 -1.3125
v -1.75 2.875 -1.3125
vt 0 0.6875
vt 0.25 0.6875
vt 0.25 1
vt 0 1
vt 0.375 0.6875
vt 0.5 0.6875
vt 0.5 1
vt 0.375 1
vt 0.25 0.6875
vt 0 0.6875
vt 0 1
vt 0.25 1
vt 0.5 0.6875
vt 0.625 0.6875
vt 0.625 1
vt 0.5 1
vt 0.375 0.5625
vt 0.625 0.5625
vt 0.625 0.6875
vt 0.375 0.6875
vt 0 0.5625
vt 0.25 0.5625
vt 0.25 0.6875
vt 0 0.6875
vn 0 0 -1
vn 1 0 0
vn 0 0 1
vn -1 0 0
vn 0 1 0
vn 0 -1 0
usemtl m_b42c24be-aea7-3cba-5dc4-465169354988
f 269/665/167 270/666/167 271/667/167 272/668/167
f 273/669/168 269/670/168 272/671/168 274/672/168
f 275/673/169 273/674/169 274/675/169 276/676/169
f 270/677/170 275/678/170 276/679/170 271/680/170
f 276/681/171 274/682/171 272/683/171 271/684/171
f 270/685/172 269/686/172 273/687/172 275/688/172
o core_bottom
v -1.25 2.0625 -1.6875
v -1.5 2.0625 -1.6875
v -1.5 2.3125 -1.6875
v -1.25 2.3125 -1.6875
v -1.25 2.0625 -1.3125
v -1.25 2.3125 -1.3125
v -1.5 2.0625 -1.3125
v -1.5 2.3125 -1.3125
vt 0.25 0.75
vt 0.375 0.75
vt 0.375 0.875
vt 0.25 0.875
vt 0.625 0.625
vt 0.75 0.625
vt 0.75 0.75
vt 0.625 0.75
vt 0.375 0.75
vt 0.25 0.75
vt 0.25 0.875
vt 0.375 0.875
vt 0 0.5625
vt 0.125 0.5625
vt 0.125 0.6875
vt 0 0.6875
vt 0 1
vt 0 1
vt 0 1
vt 0 1
vt 0 0.5625
vt 0.125 0.5625
vt 0.125 0.6875
vt 0 0.6875
vn 0 0 -1
vn 1 0 0
vn 0 0 1
vn -1 0 0
vn 0 1 0
vn 0 -1 0
usemtl m_b42c24be-aea7-3cba-5dc4-465169354988
f 277/689/173 278/690/173 279/691/173 280/692/173
f 281/693/174 277/694/174 280/695/174 282/696/174
f 283/697/175 281/698/175 282/699/175 284/700/175
f 278/701/176 283/702/176 284/703/176 279/704/176
f 284/705/177 282/706/177 280/707/177 279/708/177
f 278/709/178 277/710/178 281/711/178 283/712/178
o core_bottom
v 2.75 2.0625 -1.6875
v 2.5 2.0625 -1.6875
v 2.5 2.3125 -1.6875
v 2.75 2.3125 -1.6875
v 2.75 2.0625 -1.3125
v 2.75 2.3125 -1.3125
v 2.5 2.0625 -1.3125
v 2.5 2.3125 -1.3125
vt 0.25 0.75
vt 0.375 0.75
vt 0.375 0.875
vt 0.25 0.875
vt 0.625 0.625
vt 0.75 0.625
vt 0.75 0.75
vt 0.625 0.75
vt 0.375 0.75
vt 0.25 0.75
vt 0.25 0.875
vt 0.375 0.875
vt 0 0.5625
vt 0.125 0.5625
vt 0.125 0.6875
vt 0 0.6875
vt 0 1
vt 0 1
vt 0 1
vt 0 1
vt 0 0.5625
vt 0.125 0.5625
vt 0.125 0.6875
vt 0 0.6875
vn 0 0 -1
vn 1 0 0
vn 0 0 1
vn -1 0 0
vn 0 1 0
vn 0 -1 0
usemtl m_b42c24be-aea7-3cba-5dc4-465169354988
f 285/713/179 286/714/179 287/715/179 288/716/179
f 289/717/180 285/718/180 288/719/180 290/720/180
f 291/721/181 289/722/181 290/723/181 292/724/181
f 286/725/182 291/726/182 292/727/182 287/728/182
f 292/729/183 290/730/183 288/731/183 287/732/183
f 286/733/184 285/734/184 289/735/184 291/736/184
o core_base
v 2.75 2.3125 -1.6875
v 2.25 2.3125 -1.6875
v 2.25 2.875 -1.6875
v 2.75 2.875 -1.6875
v 2.75 2.3125 -1.3125
v 2.75 2.875 -1.3125
v 2.25 2.3125 -1.3125
v 2.25 2.875 -1.3125
vt 0 0.6875
vt 0.25 0.6875
vt 0.25 1
vt 0 1
vt 0.375 0.6875
vt 0.5 0.6875
vt 0.5 1
vt 0.375 1
vt 0.25 0.6875
vt 0 0.6875
vt 0 1
vt 0.25 1
vt 0.5 0.6875
vt 0.625 0.6875
vt 0.625 1
vt 0.5 1
vt 0.375 0.5625
vt 0.625 0.5625
vt 0.625 0.6875
vt 0.375 0.6875
vt 0 0.5625
vt 0.25 0.5625
vt 0.25 0.6875
vt 0 0.6875
vn 0 0 -1
vn 1 0 0
vn 0 0 1
vn -1 0 0
vn 0 1 0
vn 0 -1 0
usemtl m_b42c24be-aea7-3cba-5dc4-465169354988
f 293/737/185 294/738/185 295/739/185 296/740/185
f 297/741/186 293/742/186 296/743/186 298/744/186
f 299/745/187 297/746/187 298/747/187 300/748/187
f 294/749/188 299/750/188 300/751/188 295/752/188
f 300/753/189 298/754/189 296/755/189 295/756/189
f 294/757/190 293/758/190 297/759/190 299/760/190
o core_top
v 2.5 2.875 -1.6875
v 2.25 2.875 -1.6875
v 2.25 3.125 -1.6875
v 2.5 3.125 -1.6875
v 2.5 2.875 -1.3125
v 2.5 3.125 -1.3125
v 2.25 2.875 -1.3125
v 2.25 3.125 -1.3125
vt 0.25 0.875
vt 0.375 0.875
vt 0.375 1
vt 0.25 1
vt 0.25 0.875
vt 0.375 0.875
vt 0.375 1
vt 0.25 1
vt 0.375 0.875
vt 0.25 0.875
vt 0.25 1
vt 0.375 1
vt 0.625 0.875
vt 0.75 0.875
vt 0.75 1
vt 0.625 1
vt 0.625 0.75
vt 0.75 0.75
vt 0.75 0.875
vt 0.625 0.875
vt 0 1
vt 0 1
vt 0 1
vt 0 1
vn 0 0 -1
vn 1 0 0
vn 0 0 1
vn -1 0 0
vn 0 1 0
vn 0 -1 0
usemtl m_b42c24be-aea7-3cba-5dc4-465169354988
f 301/761/191 302/762/191 303/763/191 304/764/191
f 305/765/192 301/766/192 304/767/192 306/768/192
f 307/769/193 305/770/193 306/771/193 308/772/193
f 302/773/194 307/774/194 308/775/194 303/776/194
f 308/777/195 306/778/195 304/779/195 303/780/195
f 302/781/196 301/782/196 305/783/196 307/784/196